<svg id="Layer_1" data-name="Layer 1" xmlns="http://www.w3.org/2000/svg" viewBox="0 0 250.75 93.4"><defs><style>.cls-1{fill:none;}.cls-2{fill:#fff;}</style></defs><path class="cls-1" d="M81.4,134.5a36.39,36.39,0,0,1-12.3-2,28.6,28.6,0,0,1-9.7-5.7,26,26,0,0,1-6.4-8.9,28.71,28.71,0,0,1-2.3-11.7,28.13,28.13,0,0,1,2.35-11.65,25.91,25.91,0,0,1,6.55-9,29.58,29.58,0,0,1,9.85-5.7,36.56,36.56,0,0,1,12.25-2,33.67,33.67,0,0,1,5.45.45,39,39,0,0,1,5.3,1.25,37.15,37.15,0,0,1,4.7,1.8,18.18,18.18,0,0,1,3.65,2.2L89.3,100.2a7.79,7.79,0,0,0-3.15-2.08,10.81,10.81,0,0,0-3.75-.72,10,10,0,0,0-3.3.55,8,8,0,0,0-2.85,1.7,9.26,9.26,0,0,0-2,2.8,9.66,9.66,0,0,0,0,7.7,8.05,8.05,0,0,0,2,2.7,8.86,8.86,0,0,0,2.85,1.6,10,10,0,0,0,3.3.55,10.56,10.56,0,0,0,3.9-.75,8.2,8.2,0,0,0,3.1-2L101,128.33a28.72,28.72,0,0,1-8.55,4.38A34.08,34.08,0,0,1,81.4,134.5Z" transform="translate(-45.01 -47.16)"/><path class="cls-2" d="M81.62,140.56a51.4,51.4,0,0,0,11.49-3c.94-.37,1.79-.74,2.68-1.14l.89-.41,1-.49c.67-.33,1.33-.68,2-1a27.67,27.67,0,0,0,3.49-2.37l3.21-2.52s.1,0,.07-.08l-.06-.11-.14-.22-.26-.44-.52-.87-1-1.74a36.49,36.49,0,0,0-2.45-3.53l-3.78-5.11-3.61-4.88-2.54-3.45-1.27-1.71a4.64,4.64,0,0,0-.31-.4l-.27-.17a7.5,7.5,0,0,1-.66-.48l-.86.88c-.66.66-1.33,1.32-2,1.93l-.94.87a2.85,2.85,0,0,1-.91.65c-.43.18-.43.16-.59.22l-.4.12a5.39,5.39,0,0,1-.8.16,6.31,6.31,0,0,1-3.2-.38,4.79,4.79,0,0,1-1.3-.75,3.81,3.81,0,0,1-.9-1,4.15,4.15,0,0,1-.57-1.31,6.34,6.34,0,0,1-.16-1.64,6.06,6.06,0,0,1,.22-1.57,3.66,3.66,0,0,1,.25-.62,6.19,6.19,0,0,1,.42-.72,4.72,4.72,0,0,1,2.24-1.82,6.43,6.43,0,0,1,3.19-.31c.27,0,.55.11.83.19l.22.07.28.09a2.53,2.53,0,0,1,.92.55c1.17,1.07,2.57,2.44,3.86,3.78a5.7,5.7,0,0,1,1-.68l1-1.44,2-2.89L96.8,96l6.29-8.89c.62-1,1-1.89,1.56-2.84.36-.92,1.59-2,.11-2.59-.87-.68-1.73-1.32-2.61-2a22.32,22.32,0,0,0-3-1.76,35.29,35.29,0,0,0-3.32-1.43l-1.36-.49-1.15-.37a41,41,0,0,0-4.74-1.17,57.83,57.83,0,0,0-6.41-.86,37.07,37.07,0,0,0-6.49.06A36.6,36.6,0,0,0,59.16,79.6a32.42,32.42,0,0,0-6.83,6.09,33.59,33.59,0,0,0-5,8,29.88,29.88,0,0,0-2.22,14.57,36.46,36.46,0,0,0,1.28,7.23,37.53,37.53,0,0,0,2.78,7,31.68,31.68,0,0,0,5.53,7.7,32.25,32.25,0,0,0,7.5,5.68,35.91,35.91,0,0,0,17.54,4.35c.86.06,1.59-.27,1.65-.68s-.61-.76-1.45-.82a41.48,41.48,0,0,1-16.75-4.8,32.36,32.36,0,0,1-7.13-5.31,30.25,30.25,0,0,1-8.87-18.82,34.58,34.58,0,0,1,.86-12,28.77,28.77,0,0,1,15-18.54,49,49,0,0,1,4.85-2.45,37,37,0,0,1,9.11-2,43.92,43.92,0,0,1,4.58-.17,35.81,35.81,0,0,1,4.63.36,43.6,43.6,0,0,1,9,2.26,29.67,29.67,0,0,1,5.65,2.67c.84.54,1.62,1.1,2.42,1.69l1.2.9.16.12s-.06.11-.08.16l-.17.32-.34.63-1.61,3L100.24,90,97.1,94.56l-3.37,4.88-2.22,3.19-1.11,1.59-.14.2a.54.54,0,0,1-.11,0l-.26.11a4.81,4.81,0,0,0-.62.36c-1.21-1.23-2.52-2.47-3.65-3.44a2.66,2.66,0,0,0-.89-.5,5,5,0,0,0-.51-.15,7.11,7.11,0,0,0-.89-.2,6.74,6.74,0,0,0-3.41.37,5,5,0,0,0-2.43,2,8,8,0,0,0-.44.76,3.41,3.41,0,0,0-.27.69,5.85,5.85,0,0,0-.23,1.69,7.27,7.27,0,0,0,.17,1.75,6.56,6.56,0,0,0,.24.71,7.35,7.35,0,0,0,.39.72,4.4,4.4,0,0,0,1,1.13,5.66,5.66,0,0,0,1.41.82,6.89,6.89,0,0,0,3.43.4,5,5,0,0,0,.86-.17l.43-.12.21-.08.45-.18a3.58,3.58,0,0,0,.87-.65l.89-.8c.61-.56,1.24-1.17,1.86-1.78l.68-.68a5.92,5.92,0,0,0,.64.37l.27.11c.09.1.2.26.3.39l1.2,1.63,2.43,3.3,3.57,4.79,3.76,5a34.1,34.1,0,0,1,2.38,3.39l1,1.68.52.84.26.42.13.21c0,.07-.1.11-.15.17a51.35,51.35,0,0,1-6.47,4.73c-.61.36-1.25.7-1.91,1-.32.17-.66.33-1,.48l-.82.39c-.88.4-1.74.78-2.67,1.16a51.27,51.27,0,0,1-11.43,3c-.1,0-.14.07-.09.12S81.51,140.56,81.62,140.56Z" transform="translate(-45.01 -47.16)"/><path class="cls-2" d="M81.6,138.26a48.92,48.92,0,0,0,10.82-2.87c.88-.35,1.7-.71,2.54-1.09l.74-.35.8-.38c.53-.26,1-.54,1.55-.82a40.62,40.62,0,0,0,5.42-3.81c.09,0,0-.09,0-.15l-.11-.18-.23-.34-.46-.69-.91-1.37c-.57-.91-1.31-1.84-2-2.76l-3.42-4.61L93,114.35l-2-2.65-1-1.31a1.87,1.87,0,0,0-.25-.29l-.24.08a2.45,2.45,0,0,1-.56.07l-.62.58A14.33,14.33,0,0,1,85.53,113c-.29.12-.41.15-.6.22l-.53.15a9.37,9.37,0,0,1-1.08.21A8.65,8.65,0,0,1,79,113a6.9,6.9,0,0,1-4.33-6.88A8.71,8.71,0,0,1,75,103.9a7.68,7.68,0,0,1,1-2,6.9,6.9,0,0,1,3.32-2.68,8.53,8.53,0,0,1,4.36-.45,10.88,10.88,0,0,1,1.1.25l.56.18a3,3,0,0,1,.72.34,19.6,19.6,0,0,1,2.83,2.23,2.15,2.15,0,0,1,.88.23l.78-1.09,1.56-2.21,2.86-4,5.6-7.89c.51-.76.93-1.49,1.4-2.24s1.42-1.59.2-2a25.36,25.36,0,0,0-4.55-2.81c-.84-.39-1.71-.75-2.59-1.08l-1.18-.42-1.09-.36a38.51,38.51,0,0,0-4.48-1.1A43.1,43.1,0,0,0,76,76a34.31,34.31,0,0,0-15.56,5.49,30.5,30.5,0,0,0-11,13,27.77,27.77,0,0,0-2.07,13.63,34.47,34.47,0,0,0,3.79,13.22,29.39,29.39,0,0,0,12.09,12.45,33.74,33.74,0,0,0,16.53,4.08c.83.06,1.52-.28,1.58-.69s-.59-.76-1.38-.81a39.1,39.1,0,0,1-15.74-4.54,28.79,28.79,0,0,1-11.54-11.51,28,28,0,0,1-3.26-10.81,32.64,32.64,0,0,1,.8-11.17,26.46,26.46,0,0,1,13.9-17.1A44.78,44.78,0,0,1,68.7,79a34.74,34.74,0,0,1,8.56-1.85,38.28,38.28,0,0,1,8.69.18,41.83,41.83,0,0,1,8.41,2.13,32,32,0,0,1,4.35,1.92c.69.38,1.35.79,2,1.23l1,.7.11.09a.37.37,0,0,1-.07.12l-.15.25-.31.49-1.47,2.34L98.16,89l-3,4.3-3,4.39L90.51,100l-.83,1.2-.1.15s-.08,0-.11-.06l-.24-.14a2.85,2.85,0,0,0-.51-.2,14.31,14.31,0,0,0-2.63-1.88,3.71,3.71,0,0,0-.68-.3l-.58-.18c-.38-.1-.77-.19-1.15-.25a9.14,9.14,0,0,0-4.6.5,7.44,7.44,0,0,0-3.5,2.87,7.65,7.65,0,0,0-1,2.08,8.36,8.36,0,0,0-.33,2.3,7.35,7.35,0,0,0,4.63,7.27,9.11,9.11,0,0,0,4.56.57,7.18,7.18,0,0,0,1.14-.22,5.15,5.15,0,0,0,.56-.16l.27-.09.35-.13a14,14,0,0,0,2.68-1.87l.48-.43a3.13,3.13,0,0,0,.54-.19l.24-.13c.08,0,.15.19.23.28l.91,1.23,1.86,2.49L96,119.16l3.39,4.52c.65.86,1.34,1.74,1.91,2.61l.91,1.3.45.66.23.34.12.16c0,.06-.08.09-.11.13a37.41,37.41,0,0,1-5.18,3.65c-.48.28-1,.54-1.48.8l-.77.38-.7.33c-.83.39-1.65.75-2.52,1.11a48.14,48.14,0,0,1-10.75,2.92c-.1,0-.14.08-.09.13S81.5,138.27,81.6,138.26Z" transform="translate(-45.01 -47.16)"/><path class="cls-2" d="M81.59,136a47.15,47.15,0,0,0,10.15-2.77,44.58,44.58,0,0,0,4.68-2.2,24.5,24.5,0,0,0,4.07-2.73c.07,0,0-.07,0-.12l-.1-.12-.19-.26-.39-.5-.76-1-1.49-2-3.06-4.11-3-4.1-1.39-1.85-.69-.9c-.06-.06-.11-.19-.17-.19l-.21.21a5.6,5.6,0,0,1-.43.41l-.39.32a8.89,8.89,0,0,1-2,1.08,11.42,11.42,0,0,1-2.62.65,10.81,10.81,0,0,1-5.47-.73,9.34,9.34,0,0,1-2.43-1.44,8.49,8.49,0,0,1-1.89-2.17,9,9,0,0,1-1.12-2.63,11.19,11.19,0,0,1-.28-2.8,10.44,10.44,0,0,1,.42-2.8A9.55,9.55,0,0,1,74,100.67a9.25,9.25,0,0,1,4.4-3.54A10.76,10.76,0,0,1,84,96.56a10,10,0,0,1,1.36.3l.64.2.51.19a6.87,6.87,0,0,1,1.88,1.1A6,6,0,0,1,89,99l.54-.75,1.09-1.52L93,93.41l4.9-6.88,1.15-1.62c.28-.52,1.16-1.14.24-1.47a17.92,17.92,0,0,0-3.42-1.93c-.61-.26-1.22-.51-1.84-.74s-1.35-.48-2-.69a35.6,35.6,0,0,0-4.22-1,40.58,40.58,0,0,0-11.47-.78A32.12,32.12,0,0,0,61.8,83.35a28.29,28.29,0,0,0-10.19,12A25.62,25.62,0,0,0,49.7,108a31.91,31.91,0,0,0,3.52,12.25,27,27,0,0,0,11.15,11.51A31.57,31.57,0,0,0,79.9,135.6c.79.05,1.45-.28,1.5-.69s-.56-.76-1.31-.82a36.65,36.65,0,0,1-14.73-4.26,26.47,26.47,0,0,1-10.6-10.56,25.82,25.82,0,0,1-3-10,30,30,0,0,1,.73-10.39A24.22,24.22,0,0,1,65.29,83.26a43.74,43.74,0,0,1,4.2-2.15,32,32,0,0,1,8-1.73,35.78,35.78,0,0,1,8.15.18,38.64,38.64,0,0,1,7.87,2,29.13,29.13,0,0,1,2.94,1.25c.48.25.94.51,1.4.81.23.15.45.3.67.47l.08.06s0,0-.05.08l-.11.17-.22.33-2.15,3.19-2.76,4-2.69,3.89-1.12,1.61-.56.8-.07.11a.76.76,0,0,1-.09-.09l-.17-.17a3.7,3.7,0,0,0-.36-.33,6.48,6.48,0,0,0-1.71-1l-.47-.17-.66-.2A13.09,13.09,0,0,0,84,96.11a11.39,11.39,0,0,0-5.78.64,9.77,9.77,0,0,0-4.58,3.73,13.43,13.43,0,0,0-.73,1.27,9.17,9.17,0,0,0-.55,1.43,10.5,10.5,0,0,0-.42,2.91,11.18,11.18,0,0,0,.31,2.91,9.43,9.43,0,0,0,1.18,2.76,9.16,9.16,0,0,0,2,2.26,9.94,9.94,0,0,0,2.55,1.5,11.69,11.69,0,0,0,7.11.47l.69-.2.34-.12.24-.09a7.14,7.14,0,0,0,1.79-1l.3-.24.4-.37.18-.2c.06,0,.11.12.16.18l.63.83,1.27,1.69,3,4,3,4,1.41,1.82.72.93.37.47.19.24.1.12s-.06.06-.08.1a30.66,30.66,0,0,1-8.3,4.77,45.64,45.64,0,0,1-10.08,2.83c-.09,0-.13.08-.08.12S81.5,136,81.59,136Z" transform="translate(-45.01 -47.16)"/><path class="cls-2" d="M81.58,133.68A44.73,44.73,0,0,0,91.05,131c.75-.3,1.51-.64,2.25-1a2.74,2.74,0,0,0,.43-.22l.36-.19.68-.39a14.76,14.76,0,0,0,2.38-1.71c-.56-.81-1.25-1.61-1.82-2.37l-1.14-1.51-1.57-2.11-1.56-2.1-.78-1-.42-.55-.82-1-.4-.51s-.06-.1-.1-.11l-.11.13a2.77,2.77,0,0,1-.25.24l-.23.19a4.53,4.53,0,0,1-1.12.65s-.37.14-.61.21-.53.16-.8.22a12.65,12.65,0,0,1-1.63.3,13.16,13.16,0,0,1-6.6-.89,11.87,11.87,0,0,1-3-1.79,11,11,0,0,1-2.38-2.74,11.42,11.42,0,0,1-1.39-3.3,13.8,13.8,0,0,1-.34-3.38,12.59,12.59,0,0,1,.51-3.41,10.15,10.15,0,0,1,.68-1.71,13.62,13.62,0,0,1,.85-1.47A11.63,11.63,0,0,1,77.59,95a13.16,13.16,0,0,1,6.72-.7,14.12,14.12,0,0,1,1.62.36c.23.06.57.17.71.22l.28.1a4,4,0,0,1,1,.63,3.32,3.32,0,0,1,.38.37l.31-.41.61-.84.63-.85,1.25-1.77,4.21-5.88L96,85.3c.17-.31.68-.67.16-.86a10,10,0,0,0-2-1.12c-.35-.16-.7-.31-1.07-.44l-.8-.29-1-.32a34.86,34.86,0,0,0-4-1,52.21,52.21,0,0,0-5.27-.75,31.23,31.23,0,0,0-5.47,0c-9.75.94-18.7,6.37-22.9,15.64A23.22,23.22,0,0,0,52,107.91a29.71,29.71,0,0,0,3.25,11.27,24.7,24.7,0,0,0,10.2,10.57A29.13,29.13,0,0,0,80,133.3c.74.06,1.37-.28,1.42-.69s-.53-.76-1.24-.81a34.41,34.41,0,0,1-13.72-4,24.06,24.06,0,0,1-9.65-9.61,23.37,23.37,0,0,1-2.74-9.09,28,28,0,0,1,.67-9.6A21.94,21.94,0,0,1,66.4,85.27a38.52,38.52,0,0,1,3.88-2,30.53,30.53,0,0,1,7.47-1.6,38.29,38.29,0,0,1,3.87-.13,29.63,29.63,0,0,1,3.76.31,37,37,0,0,1,7.32,1.85c.49.19,1,.39,1.46.63.24.12.48.25.71.39l.34.23,0,0,0,0-.06.08-.1.16L94,86.88l-2.57,3.76L89.09,94l-.57.82-.29.41,0,0,0,0-.09-.09a1.54,1.54,0,0,0-.19-.17,3.28,3.28,0,0,0-.87-.5l-.24-.09-.33-.11L86,94.21a13,13,0,0,0-1.67-.36,13.65,13.65,0,0,0-7,.76,12.07,12.07,0,0,0-5.65,4.61,12.9,12.9,0,0,0-.87,1.52,10.55,10.55,0,0,0-.7,1.79,13.12,13.12,0,0,0-.52,3.53,13.86,13.86,0,0,0,.38,3.49,11.23,11.23,0,0,0,.61,1.8A12.37,12.37,0,0,0,71.5,113,11.52,11.52,0,0,0,74,115.8a12.44,12.44,0,0,0,3.12,1.84,13.59,13.59,0,0,0,6.83.89,12.24,12.24,0,0,0,1.69-.31l.82-.23.4-.14.14,0a4.28,4.28,0,0,0,.94-.55l.16-.14.21-.2.1-.11s0,.06.08.09l.34.43.7.88.37.48.79,1,1.57,2.11,1.58,2.1.4.53.28.37.4.49.82,1,.44.53.23.27.11.14.06.07s0,0,0,.05A13.14,13.14,0,0,1,94.48,129l-.61.37-.32.18-.17.09-.28.14c-.73.35-1.48.69-2.21,1a44,44,0,0,1-9.41,2.73c-.09,0-.13.07-.08.12S81.49,133.68,81.58,133.68Z" transform="translate(-45.01 -47.16)"/><path class="cls-2" d="M81.57,131.38a42.79,42.79,0,0,0,8.8-2.55c.68-.29,1.41-.62,2.09-1l.22-.1.07,0,.13-.1.23-.18a5.12,5.12,0,0,0,.7-.7c-.24-.28-.5-.54-.7-.77l-.15-.17,0,0-.19-.27-.4-.52-1.56-2.11-1.56-2.1-.78-1.05-.14-.16L88,119.3l-.11-.11s0,0-.06,0l-.07.08-.06.06a1,1,0,0,1-.26.21,6.09,6.09,0,0,1-.62.21c-.3.1-.61.18-.93.26a15,15,0,0,1-1.91.34,15.51,15.51,0,0,1-7.73-1.06,14.53,14.53,0,0,1-3.56-2.14,13.17,13.17,0,0,1-2.88-3.31,14.85,14.85,0,0,1-1-1.87,13.1,13.1,0,0,1-.69-2.09,15.89,15.89,0,0,1-.41-4,15.23,15.23,0,0,1,.61-4,13,13,0,0,1,.83-2.07,14.55,14.55,0,0,1,1-1.73A14.18,14.18,0,0,1,73,95a13.4,13.4,0,0,1,3.73-2.17A15.39,15.39,0,0,1,84.65,92a15.63,15.63,0,0,1,1.88.41l.45.13.34.11.05,0a1.37,1.37,0,0,1,.21.15l.08.09.06-.07.14-.16.16-.17,1.24-1.74,2.55-3.6.64-.89.06-.09,0,0,0-.06.19-.22.2-.24c0-.08.19-.18.06-.24a2.6,2.6,0,0,0-.51-.32L92.23,85l-.62-.23-.92-.3A32.92,32.92,0,0,0,87,83.55c-1.65-.3-3.25-.57-4.89-.72a29.29,29.29,0,0,0-5.13,0,27.54,27.54,0,0,0-12.52,4.3A23.55,23.55,0,0,0,55.89,97a21.11,21.11,0,0,0-1.61,10.78,27.08,27.08,0,0,0,3,10.3,22.42,22.42,0,0,0,9.26,9.64A27,27,0,0,0,80.05,131c.71.06,1.3-.28,1.35-.69s-.5-.76-1.17-.81a32.11,32.11,0,0,1-12.71-3.73,21.82,21.82,0,0,1-8.71-8.67,20.7,20.7,0,0,1-1.65-3.94,23.82,23.82,0,0,1-.82-4.28,25.35,25.35,0,0,1,.61-8.82,20,20,0,0,1,3.83-7.54,20.31,20.31,0,0,1,6.74-5.26,37.28,37.28,0,0,1,3.55-1.85A27.25,27.25,0,0,1,78,84a33.42,33.42,0,0,1,3.62-.12,27,27,0,0,1,3.47.28c1.15.17,2.35.41,3.5.7.58.15,1.15.31,1.71.49l.86.28.71.25s0,0,0,0,0,0,0,0h0l0,.06-.18.26-.71,1-1.45,2.1-2,2.91s0,.07,0,0l0,0h0l-.35-.11L86.64,92a16.64,16.64,0,0,0-1.94-.41,15.87,15.87,0,0,0-8.13.89,14.06,14.06,0,0,0-3.85,2.27A14.53,14.53,0,0,0,69.84,98a15.31,15.31,0,0,0-1,1.78,12,12,0,0,0-.84,2.15,15.32,15.32,0,0,0-.61,4.14,16,16,0,0,0,.44,4.07,14.2,14.2,0,0,0,.73,2.17l.25.54.23.46c.17.3.34.61.53.92a13.72,13.72,0,0,0,3,3.4,14.77,14.77,0,0,0,3.68,2.18,16,16,0,0,0,8,1,14.82,14.82,0,0,0,2-.36c.32-.08.64-.17,1-.27l.47-.15.06,0h0s0,0,0,0h0l.08-.11,0,0c0-.08.07-.06.1,0a.42.42,0,0,1,.12.08s0,0,.1.09l.78,1,1.58,2.11,1.58,2.1.39.53.18.23,0,0,.1.09a6.49,6.49,0,0,1,.54.48,2,2,0,0,1-.37.55l-.16.17-.1.09a.16.16,0,0,1-.06,0l-.25.13c-.68.33-1.4.66-2.07.95a40.82,40.82,0,0,1-8.74,2.62c-.08,0-.12.08-.07.13S81.49,131.38,81.57,131.38Z" transform="translate(-45.01 -47.16)"/><path class="cls-1" d="M105.4,56.9H129v75.6H105.4Z" transform="translate(-45.01 -47.16)"/><path class="cls-2" d="M99.34,57.07c2.24,12.39,1.8,25.48,2.21,38.22.2,6.2.28,12.4.29,18.6l0,9.3q-.06,6.5-.1,13l9.46.08,6,.08,6,.08,9.78.06q0-6.14,0-12.28c0-3.5.41-7,.56-10.54.36-9.5.4-18.5,1-28.1.49-7.66-.37-15-.17-22.63l.18-11.65L117.86,51c-3.71,0-7.42,0-11.14.17-.69,0-1.27.3-1.32.71s.51.77,1.2.8q5.59.34,11.2.49l2.8.06,3.09,0,8.88,0,0,9.78c.1,13.17.19,26-.38,39.32-.08,1.51.23,3,.22,4.45-.07,4.3-.14,8.56-.21,12.83l-.11,6.39c0,3.16,0,6.32-.05,9.49l-7.87,0-9.62.08H102.2l.06-21.86c0-6.22-.06-12.43-.23-18.63-.33-12.79-.16-25.86-2.5-38.24,0-.08-.08-.11-.12-.07S99.34,57,99.34,57.07Z" transform="translate(-45.01 -47.16)"/><path class="cls-2" d="M101.63,57.07c2.24,12.39,1.81,25.48,2.21,38.22.2,6.2.28,12.4.3,18.6l0,9.3-.1,10.69,26.67.31,0-10c0-3.5.41-7,.55-10.54.37-9.5.41-18.5,1-28.1.49-7.65-.37-15-.17-22.62.06-3.13.13-6.25.19-9.37l-14.47-.26c-3.71,0-7.42,0-11.14.17-.69,0-1.27.3-1.32.72s.51.76,1.2.79c3.73.24,7.46.39,11.2.49l5.7.1,6.78,0c0,2.49,0,5,0,7.48.11,13.17.2,26-.38,39.32-.08,1.51.23,3,.23,4.45-.08,4.3-.15,8.56-.22,12.83l-.11,6.39q0,3.58,0,7.19l-5.9,0-9.3.08H104.5q0-9.78,0-19.56c0-6.22-.06-12.43-.22-18.63-.34-12.79-.17-25.86-2.51-38.24,0-.08-.07-.11-.12-.07S101.63,57,101.63,57.07Z" transform="translate(-45.01 -47.16)"/><path class="cls-2" d="M103.93,57.07c2.24,12.39,1.8,25.48,2.21,38.22.2,6.2.28,12.4.29,18.6s0,12.81-.12,17.7l22.08.3,0-7.69c0-3.5.41-7,.56-10.54.36-9.5.4-18.5,1-28.1.49-7.65-.37-15-.17-22.61q.09-3.56.18-7.08l-6.51-.16-5.66-.1c-3.71,0-7.42,0-11.14.17-.69,0-1.27.3-1.32.71s.51.76,1.2.79q5.59.36,11.2.49l5.52.11,4.67,0c0,1.73,0,3.46,0,5.19.1,13.17.19,26-.38,39.32-.08,1.51.23,3,.22,4.45-.07,4.3-.14,8.56-.21,12.83l-.11,6.39,0,4.9c-1.31,0-2.6,0-3.93,0l-9,.08h-7.79q0-8.64,0-17.27c0-6.22,0-12.43-.22-18.63-.33-12.79-.17-25.86-2.5-38.24,0-.08-.08-.11-.12-.07S103.92,57,103.93,57.07Z" transform="translate(-45.01 -47.16)"/><path class="cls-2" d="M106.22,57.07c2.24,12.39,1.81,25.48,2.21,38.22.2,6.2.28,12.4.3,18.6l0,9.3,0,3.89-.06,2.22,2.79.08,5.8.08,8.91.14,0-2.16V124.2c0-3.5.41-7,.55-10.54.37-9.5.41-18.5,1-28.1.49-7.65-.38-15-.18-22.6.07-1.6.13-3.2.19-4.8L123.33,58l-5.47-.1c-3.71,0-7.42,0-11.14.17-.69,0-1.27.3-1.32.72s.51.76,1.2.79c3.73.24,7.46.39,11.2.49l5.34.1,2.55,0,0,2.89c.11,13.17.2,26-.37,39.32-.08,1.51.23,3,.22,4.45-.13,7.32-.25,14.53-.37,21.82-.65,0-1.28,0-2,0l-.62,0-1.15,0-2.29,0-4.6,0h-5.5l.06-15c0-6.22-.06-12.43-.23-18.63-.33-12.79-.16-25.86-2.5-38.24,0-.08-.07-.11-.12-.07S106.22,57,106.22,57.07Z" transform="translate(-45.01 -47.16)"/><path class="cls-2" d="M108.51,57.07c2.24,12.39,1.81,25.48,2.22,38.22.2,6.2.28,12.4.29,18.6l0,9.3,0,2.33v1l0,.45.56.08,5.73.08,5.75.08.86.06,0-.59V124.2c0-3.5.41-7,.55-10.54.36-9.5.4-18.5,1-28.1.49-7.64-.37-15-.17-22.59l.18-2.52-2.3-.16h-.41l-.7,0-1.39,0-2.78,0c-3.71,0-7.42,0-11.14.17-.69,0-1.27.31-1.32.72s.51.76,1.2.79q5.59.36,11.2.49l5.16.11a3.37,3.37,0,0,0,.44,0v.6c.1,13.17.2,26-.38,39.32-.08,1.51.23,3,.22,4.45l-.21,12.83-.11,6.39v.33h0v0a0,0,0,0,1,0,0h-1.45l-2.29,0-4.6,0h-3.2l0-.08h0v-3.26l0-9.33c0-6.22-.06-12.43-.22-18.63-.33-12.79-.17-25.86-2.5-38.24,0-.08-.08-.11-.13-.07S108.51,57,108.51,57.07Z" transform="translate(-45.01 -47.16)"/><path class="cls-1" d="M139.3,64.7a11,11,0,0,1,.95-4.55,11.85,11.85,0,0,1,2.6-3.75,12.55,12.55,0,0,1,3.85-2.55,11.75,11.75,0,0,1,4.7-1,10.84,10.84,0,0,1,4.5,1,13,13,0,0,1,3.75,2.55,12,12,0,0,1,2.6,3.75,11.18,11.18,0,0,1,.95,4.55,11.35,11.35,0,0,1-3.55,8.35,12.86,12.86,0,0,1-3.75,2.45,11.3,11.3,0,0,1-4.5.9,12.26,12.26,0,0,1-4.7-.9,12.47,12.47,0,0,1-3.85-2.45,11.35,11.35,0,0,1-3.55-8.35Zm.4,15.2h23.1v52.6H139.7Z" transform="translate(-45.01 -47.16)"/><path class="cls-2" d="M133.64,80c2.24,9.45,1.8,19.44,2.21,29.16q.24,5.84.28,11.65v6l0,9.29,9.19.08,6,.1,6,.11,9.57.08,0-10.32c0-2.67.41-5.33.56-8,.36-7.25.4-14.11,1-21.44a65.59,65.59,0,0,0,0-8.41l-.1-2.09-.08-3.78c0-2.63-.07-5.23,0-7.92l-.87,0-10.27-.22-5.58-.18c-3.59-.09-7.19-.09-10.79.13a.91.91,0,0,0-1,.71.88.88,0,0,0,.91.8c3.64.3,7.28.47,10.92.55l2.73,0,2.89,0,8.67,0h.58c0,3.69,0,7.35.06,11v7.37c0,4.92-.16,9.85-.44,14.87-.08,1.15.23,2.28.22,3.4,0,3.27-.13,6.53-.22,9.78l-.05,2.44-.05,3c0,2.45,0,4.9,0,7.36l-6,0-5.85.06-4.78,0-12.72,0q0-7.44,0-14.86c0-3.9-.08-7.79-.22-11.68-.33-9.75-.16-19.73-2.5-29.18,0-.06-.08-.08-.12,0S133.64,80,133.64,80Z" transform="translate(-45.01 -47.16)"/><path class="cls-2" d="M135.93,80c2.24,9.45,1.81,19.44,2.21,29.16.17,3.89.25,7.77.28,11.65v5.88l0,7.09,7,.09,5.84.1,5.86.1,7.38.09.05-8c0-2.67.41-5.33.55-8,.37-7.25.41-14.11,1-21.44a65.61,65.61,0,0,0,0-8.41l-.1-2.09L166,83.11c0-2.1-.07-4.18,0-6.34h-.7L157,76.54l-5.51-.18c-3.59-.09-7.19-.1-10.79.12a.91.91,0,0,0-1,.72.88.88,0,0,0,.91.79c3.64.3,7.28.47,10.92.56,1.85,0,3.58.06,5.52.07l6.62,0h.44c0,2.92,0,5.82.06,8.72v7.37c0,4.92-.16,9.85-.45,14.87-.08,1.15.23,2.28.23,3.4,0,3.27-.14,6.53-.22,9.78l-.11,5c0,1.83,0,3.67,0,5.51l-4.49,0-5.06.07-4.78,0-10.43,0q0-6.3,0-12.57c0-3.9-.08-7.79-.21-11.68-.34-9.75-.17-19.73-2.51-29.18a.08.08,0,0,0-.12,0C136,79.9,135.93,80,135.93,80Z" transform="translate(-45.01 -47.16)"/><path class="cls-2" d="M138.23,80c2.24,9.45,1.8,19.44,2.21,29.16q.24,5.84.28,11.65v5.79l0,4.89,21.51.37,0-5.73c0-2.67.41-5.33.56-8,.36-7.25.4-14.11,1-21.44a63.82,63.82,0,0,0,0-8.41l-.09-2.09-.09-2.36c0-1.58-.07-3.12,0-4.76h-.52l-11.61-.4c-3.59-.09-7.19-.09-10.79.13a.91.91,0,0,0-1,.71.87.87,0,0,0,.91.79c3.64.31,7.28.48,10.92.56,1.8,0,3.69.06,5.41.07l4.57,0h.3q0,3.23.06,6.42v7.37c0,4.92-.16,9.85-.44,14.87-.08,1.15.23,2.28.22,3.4,0,3.27-.13,6.53-.21,9.78l-.11,4.59c0,1.23-.05,2.44,0,3.67-1,0-2,0-3,0l-1.88,0-2.39,0-4.78,0-8.13,0,0-4.48v-5.79c0-3.9-.08-7.79-.22-11.68-.33-9.75-.17-19.73-2.5-29.18,0-.06-.08-.08-.12,0S138.22,80,138.23,80Z" transform="translate(-45.01 -47.16)"/><path class="cls-2" d="M140.52,80c2.24,9.45,1.81,19.44,2.21,29.16.17,3.89.25,7.77.28,11.65v5.7l0,2.68,2.65.09,5.61.1,5.63.11,3,.08,0-3.44c0-2.67.41-5.33.55-8,.37-7.25.41-14.11,1-21.44a67.47,67.47,0,0,0,0-8.41l-.18-3.73c0-1.06-.08-2.08,0-3.18l-.34,0-4.13-.21-5.37-.19c-3.59-.09-7.19-.09-10.79.13a.91.91,0,0,0-1,.72.88.88,0,0,0,.91.79c3.64.3,7.28.47,10.92.56l2.73,0,2.58,0,2.51,0h.17l0,1.69,0,2.44v7.37c0,4.92-.16,9.85-.44,14.87-.08,1.15.22,2.28.22,3.4,0,3.27-.14,6.53-.22,9.78l-.06,2.44,0,1.22,0,.48c0,.62,0,1.21,0,1.82-.49,0-1,0-1.48,0l-.45,0h-.64l-2.39,0-4.78,0h-4l-1.85,0,0-2.28v-5.7c0-3.9-.08-7.79-.22-11.68-.33-9.75-.16-19.73-2.5-29.18a.08.08,0,0,0-.12,0C140.54,79.9,140.52,80,140.52,80Z" transform="translate(-45.01 -47.16)"/><path class="cls-2" d="M142.81,80c2.24,9.45,1.81,19.44,2.22,29.16.16,3.89.24,7.77.28,11.65v5.6c0,.15,0,.3,0,.49l.48.08,5.49.11,5.52.1.84.08,0-.44v-.7c0-2.67.42-5.33.56-8,.36-7.25.4-14.11,1-21.44a63.82,63.82,0,0,0,0-8.41l-.09-2.09a2.39,2.39,0,0,0,0-.33l0-.2,0-.4a9.42,9.42,0,0,1,0-1.6h-.17l-2.08-.22-2.6-.1-2.7-.08c-3.59-.09-7.19-.09-10.79.12a.92.92,0,0,0-1,.72.88.88,0,0,0,.91.79c3.64.31,7.28.48,10.92.56l2.73,0,2.48,0a2.36,2.36,0,0,0,.45,0h0l0,.3v1.54c0,2.46,0,4.91,0,7.37,0,4.92-.16,9.85-.44,14.87-.08,1.15.23,2.28.22,3.4,0,3.27-.13,6.53-.21,9.78l-.06,2.44,0,1.22c0,.07,0,0,0,0s0,0,0,0a.07.07,0,0,1,0,0v0h0s0,0,0,0h-.3l-2.39,0-4.78,0h-3.5l-.05,0,0-.07v-5.61c0-3.9-.08-7.79-.21-11.68-.34-9.75-.17-19.73-2.5-29.18,0-.06-.08-.08-.13,0S142.81,80,142.81,80Z" transform="translate(-45.01 -47.16)"/><path class="cls-2" d="M133.24,64.79a35.26,35.26,0,0,0,2,4.91A23.49,23.49,0,0,0,138,73.92a16.32,16.32,0,0,0,7.87,5.37,18.53,18.53,0,0,0,8.32.43,16.76,16.76,0,0,0,7.5-3.57,15,15,0,0,0,5.52-11.29,14.34,14.34,0,0,0-.52-4.34,21,21,0,0,0-1.83-5.08,14.78,14.78,0,0,0-2.27-2.9,18.44,18.44,0,0,0-2.76-2.29c-.5-.33-1-.64-1.54-.94a18.94,18.94,0,0,0-1.75-.84,20,20,0,0,0-3.84-1.13,11.85,11.85,0,0,0-6.18.62,27.24,27.24,0,0,0-5.38,2.83,17,17,0,0,0-5.46,5.53,13.78,13.78,0,0,0-2,7.65.7.7,0,0,0,.7.73.77.77,0,0,0,.81-.61,18.19,18.19,0,0,1,7.12-11.84A16.09,16.09,0,0,1,146.41,50a14.75,14.75,0,0,1,4.71-.8A13,13,0,0,1,160,52.49c.53.47,1.26.67,1.77,1.14a14.42,14.42,0,0,1,2.32,2.9,15.33,15.33,0,0,1,2.18,7,18.47,18.47,0,0,1-.11,3.64,12.7,12.7,0,0,1-.85,3.24,13.76,13.76,0,0,1-1.6,2.91,15.57,15.57,0,0,1-11.22,6.23,17.63,17.63,0,0,1-6.5-.7,16.66,16.66,0,0,1-7.69-5.18,23.25,23.25,0,0,1-2.78-4.08,36.34,36.34,0,0,1-2-4.82.09.09,0,0,0-.12,0C133.26,64.7,133.24,64.75,133.24,64.79Z" transform="translate(-45.01 -47.16)"/><path class="cls-2" d="M135.53,64.78a25.78,25.78,0,0,0,4.3,7.8,13.89,13.89,0,0,0,6.78,4.55,16,16,0,0,0,7.13.33,14.54,14.54,0,0,0,6.41-3,12.9,12.9,0,0,0,4.1-6,12.75,12.75,0,0,0,.19-7.32,18.54,18.54,0,0,0-1.5-4.39,14.32,14.32,0,0,0-4.33-4.53,16.45,16.45,0,0,0-6.12-2.61,9.84,9.84,0,0,0-5.37.54,25.23,25.23,0,0,0-4.68,2.5,14.56,14.56,0,0,0-4.79,4.77,11.58,11.58,0,0,0-1.76,6.63c0,.34.29.62.71.64a.75.75,0,0,0,.8-.52,16,16,0,0,1,6.16-10.06,14,14,0,0,1,3.58-1.91,12.61,12.61,0,0,1,4-.68,11.21,11.21,0,0,1,4,.72,11.48,11.48,0,0,1,3.45,2.11c.44.41,1.1.55,1.53,1a12.32,12.32,0,0,1,3.22,5.32,14.82,14.82,0,0,1,.47,6.14A11.4,11.4,0,0,1,161.81,72a13.26,13.26,0,0,1-9.52,5.27,15.43,15.43,0,0,1-5.55-.56,14.46,14.46,0,0,1-6.61-4.36,25,25,0,0,1-4.41-7.58.09.09,0,0,0-.12,0A.07.07,0,0,0,135.53,64.78Z" transform="translate(-45.01 -47.16)"/><path class="cls-2" d="M137.83,64.77a24.44,24.44,0,0,0,3.86,6.48,11.74,11.74,0,0,0,5.7,3.73,13.73,13.73,0,0,0,5.94.22,12.18,12.18,0,0,0,5.31-2.51,10.45,10.45,0,0,0,3.59-10.92,16.39,16.39,0,0,0-1.16-3.69,12,12,0,0,0-3.63-3.88,14.4,14.4,0,0,0-5.12-2.29,7.89,7.89,0,0,0-4.56.45,25.17,25.17,0,0,0-4,2.17,12.33,12.33,0,0,0-4.12,4,9.44,9.44,0,0,0-1.46,5.62c-.05.28.29.52.7.54s.76-.19.8-.44A13.81,13.81,0,0,1,144.88,56a10.54,10.54,0,0,1,6.32-2.16,8.79,8.79,0,0,1,6.11,2.4c.36.35.94.43,1.31.78a10,10,0,0,1,2.61,4.4,12.73,12.73,0,0,1,.36,5,8.94,8.94,0,0,1-1.65,4.21,11,11,0,0,1-7.8,4.32,13.06,13.06,0,0,1-4.61-.43A12.16,12.16,0,0,1,142,71a22.91,22.91,0,0,1-4-6.25.12.12,0,0,0-.13,0A.06.06,0,0,0,137.83,64.77Z" transform="translate(-45.01 -47.16)"/><path class="cls-2" d="M140.12,64.76a23.74,23.74,0,0,0,3.44,5.15,9.51,9.51,0,0,0,4.62,2.91,11.17,11.17,0,0,0,2.38.31,10.74,10.74,0,0,0,2.37-.19,9.89,9.89,0,0,0,4.21-2,8,8,0,0,0,1.61-1.68A8.09,8.09,0,0,0,160,62.4a15.08,15.08,0,0,0-.84-3,9.71,9.71,0,0,0-2.93-3.23,12.18,12.18,0,0,0-4.1-2,6,6,0,0,0-3.77.37,25.05,25.05,0,0,0-3.28,1.82,10.15,10.15,0,0,0-3.45,3.26,7.32,7.32,0,0,0-1.18,4.6c0,.24.29.44.7.45s.77-.15.8-.35a11.74,11.74,0,0,1,4.23-6.48,9.54,9.54,0,0,1,2.4-1.31,7.93,7.93,0,0,1,2.63-.44,6.61,6.61,0,0,1,4.74,2c.28.3.79.31,1.09.6a7.87,7.87,0,0,1,2,3.47,8.56,8.56,0,0,1,.3,1.89,13.23,13.23,0,0,1,0,2,6.08,6.08,0,0,1-.41,1.68,6.93,6.93,0,0,1-.85,1.56,8.16,8.16,0,0,1-2.72,2.33,8.36,8.36,0,0,1-3.37,1,11.21,11.21,0,0,1-3.66-.3,10,10,0,0,1-4.45-2.71,21.28,21.28,0,0,1-3.56-4.93.12.12,0,0,0-.12,0C140.14,64.7,140.12,64.73,140.12,64.76Z" transform="translate(-45.01 -47.16)"/><path class="cls-2" d="M142.42,64.75A22.79,22.79,0,0,0,144,66.92c.47.57,1,1.19,1.45,1.65A7.29,7.29,0,0,0,149,70.66a9.61,9.61,0,0,0,1.79.18,8.79,8.79,0,0,0,1.77-.15,7.84,7.84,0,0,0,3.12-1.47A5.78,5.78,0,0,0,156.82,68a5.9,5.9,0,0,0,.48-.74,5.77,5.77,0,0,0,.35-.76,5.91,5.91,0,0,0,.35-1.75,5.64,5.64,0,0,0-.18-1.76,12.35,12.35,0,0,0-.51-2.3,7.32,7.32,0,0,0-2.22-2.58,10.28,10.28,0,0,0-3.1-1.65,4.19,4.19,0,0,0-3,.28c-.86.39-1.74,1-2.59,1.49a7.76,7.76,0,0,0-2.77,2.51,5.19,5.19,0,0,0-.9,3.58c0,.18.3.34.71.35s.76-.12.8-.26a10.53,10.53,0,0,1,1.31-2.62,8.52,8.52,0,0,1,1.95-2.08,7.74,7.74,0,0,1,.87-.58l.49-.24a4.07,4.07,0,0,1,.44-.18,5.29,5.29,0,0,1,1.93-.32,4.17,4.17,0,0,1,1.79.37A5.41,5.41,0,0,1,154.65,60c.2.24.63.19.86.41a5.13,5.13,0,0,1,.88,1.2,6.53,6.53,0,0,1,.52,1.36,8,8,0,0,1,.18,1.3,11.54,11.54,0,0,1,0,1.44,4.07,4.07,0,0,1-.25,1.16,5.34,5.34,0,0,1-.6,1.11,6.46,6.46,0,0,1-4.38,2.42,9.32,9.32,0,0,1-1.4,0,7.35,7.35,0,0,1-1.32-.18,7.92,7.92,0,0,1-3.37-1.88c-.48-.41-1-1-1.5-1.51a17.41,17.41,0,0,1-1.63-2.09.14.14,0,0,0-.13,0S142.41,64.72,142.42,64.75Z" transform="translate(-45.01 -47.16)"/><path class="cls-1" d="M202.1,134.5a36.39,36.39,0,0,1-12.3-2,28.5,28.5,0,0,1-9.7-5.7,25.87,25.87,0,0,1-6.4-8.9,28.54,28.54,0,0,1-2.3-11.7,28.13,28.13,0,0,1,2.35-11.65,25.78,25.78,0,0,1,6.55-9,29.58,29.58,0,0,1,9.85-5.7,36.52,36.52,0,0,1,12.25-2,33.76,33.76,0,0,1,5.45.45,39,39,0,0,1,5.3,1.25,37.75,37.75,0,0,1,4.7,1.8,18.18,18.18,0,0,1,3.65,2.2L210,100.2a7.79,7.79,0,0,0-3.15-2.08,10.81,10.81,0,0,0-3.75-.72,9.94,9.94,0,0,0-3.3.55,8,8,0,0,0-2.85,1.7,9.1,9.1,0,0,0-2,2.8,9.66,9.66,0,0,0,0,7.7,7.92,7.92,0,0,0,2,2.7,8.86,8.86,0,0,0,2.85,1.6,9.94,9.94,0,0,0,3.3.55,10.56,10.56,0,0,0,3.9-.75,8.28,8.28,0,0,0,3.1-2l11.6,16.13a28.72,28.72,0,0,1-8.55,4.38A34.12,34.12,0,0,1,202.1,134.5Z" transform="translate(-45.01 -47.16)"/><path class="cls-2" d="M202.31,140.56a51.49,51.49,0,0,0,11.5-3c.93-.37,1.79-.74,2.68-1.14l.89-.41c.35-.16.69-.32,1-.49.68-.33,1.34-.68,2-1a27.8,27.8,0,0,0,3.5-2.37l3.21-2.52s.1,0,.07-.08l-.07-.11-.13-.22-.26-.44-.52-.87-1-1.74a36.49,36.49,0,0,0-2.45-3.53l-3.78-5.1-3.61-4.89-2.55-3.45-1.26-1.71a4.64,4.64,0,0,0-.31-.4l-.27-.16c-.19-.13-.41-.29-.66-.49l-.86.88c-.66.67-1.33,1.33-2,1.93l-.93.87a2.88,2.88,0,0,1-.92.65,5.66,5.66,0,0,1-.58.22l-.4.12a5.39,5.39,0,0,1-.8.16,6.29,6.29,0,0,1-3.2-.38,4.79,4.79,0,0,1-1.3-.75,3.81,3.81,0,0,1-.9-1,3.93,3.93,0,0,1-.57-1.31,5.93,5.93,0,0,1-.16-1.64,5.66,5.66,0,0,1,.22-1.57,3.3,3.3,0,0,1,.25-.63,6.94,6.94,0,0,1,.41-.71,4.74,4.74,0,0,1,2.25-1.82,6.39,6.39,0,0,1,3.18-.31c.28,0,.55.11.84.19l.21.07.28.09a2.65,2.65,0,0,1,.93.55c1.17,1.07,2.56,2.44,3.86,3.78a5.06,5.06,0,0,1,1-.68l1-1.44,2-2.89L217.5,96l6.29-8.89c.62-1,1-1.89,1.56-2.84.35-.92,1.59-2,.1-2.59-.87-.68-1.72-1.32-2.61-2A21.57,21.57,0,0,0,219.9,78a35.29,35.29,0,0,0-3.32-1.43l-1.36-.49-1.15-.37a41.49,41.49,0,0,0-4.74-1.17,58.34,58.34,0,0,0-6.42-.86,37,37,0,0,0-6.48.06,36.56,36.56,0,0,0-16.57,5.88A32.18,32.18,0,0,0,173,85.69a33.94,33.94,0,0,0-5,8,30,30,0,0,0-2.21,14.57,36.46,36.46,0,0,0,1.28,7.23,36.85,36.85,0,0,0,2.78,7,31.42,31.42,0,0,0,5.53,7.7,31.77,31.77,0,0,0,7.5,5.68,35.91,35.91,0,0,0,17.54,4.35c.86.06,1.59-.27,1.65-.68s-.62-.76-1.45-.82a41.48,41.48,0,0,1-16.75-4.8,32.41,32.41,0,0,1-7.14-5.31,30.31,30.31,0,0,1-8.86-18.82,34.84,34.84,0,0,1,.85-12,28.82,28.82,0,0,1,15-18.54,47.79,47.79,0,0,1,4.84-2.45,37.22,37.22,0,0,1,9.11-2,44.22,44.22,0,0,1,4.59-.17,35.81,35.81,0,0,1,4.63.36,43.51,43.51,0,0,1,8.95,2.26,29.76,29.76,0,0,1,5.66,2.67c.84.54,1.61,1.1,2.42,1.69l1.2.9.15.12a.6.6,0,0,1-.08.16l-.16.31-.34.64-1.62,3L220.93,90l-3.14,4.58-3.37,4.88-2.21,3.19-1.11,1.59-.14.2a.61.61,0,0,1-.12,0l-.25.11a4.22,4.22,0,0,0-.62.36c-1.21-1.23-2.53-2.47-3.66-3.44a2.62,2.62,0,0,0-.88-.5c-.26-.08-.34-.11-.51-.15a7.54,7.54,0,0,0-.89-.2,6.72,6.72,0,0,0-3.41.37,5.16,5.16,0,0,0-2.44,2,7.9,7.9,0,0,0-.43.76,3.41,3.41,0,0,0-.27.69,6.21,6.21,0,0,0-.24,1.69,6.77,6.77,0,0,0,.18,1.75,6.56,6.56,0,0,0,.24.71,5.7,5.7,0,0,0,.39.72,4.4,4.4,0,0,0,1,1.13,5.48,5.48,0,0,0,1.41.82,6.87,6.87,0,0,0,3.43.4,5,5,0,0,0,.86-.17l.42-.12.22-.08.44-.18a3.58,3.58,0,0,0,.87-.65l.9-.8c.61-.56,1.24-1.16,1.86-1.78l.68-.68a5.92,5.92,0,0,0,.64.37l.27.11.3.39,1.2,1.63L215,113l3.57,4.79,3.76,5a37.79,37.79,0,0,1,2.38,3.39l1,1.68.52.84.26.42.13.21c0,.07-.11.11-.15.17a52.21,52.21,0,0,1-6.48,4.73c-.61.36-1.25.7-1.9,1l-1,.48-.83.39c-.87.4-1.73.78-2.66,1.16a51.27,51.27,0,0,1-11.43,3q-.16,0-.09.12S202.21,140.56,202.31,140.56Z" transform="translate(-45.01 -47.16)"/><path class="cls-2" d="M202.3,138.26a48.92,48.92,0,0,0,10.82-2.87c.87-.35,1.7-.71,2.54-1.09l.74-.35.8-.38c.53-.26,1.05-.54,1.55-.82a39.88,39.88,0,0,0,5.41-3.81s.08,0,.06-.07l-.06-.08-.12-.18-.23-.34-.45-.69-.91-1.37c-.57-.9-1.31-1.84-2-2.76l-3.42-4.6-3.33-4.5-2-2.65-1-1.3a1.59,1.59,0,0,0-.25-.3l-.24.08a2.45,2.45,0,0,1-.56.07l-.62.58a14.62,14.62,0,0,1-2.88,2.12c-.29.12-.41.15-.6.22l-.53.15a10.28,10.28,0,0,1-1.08.21,8.64,8.64,0,0,1-4.33-.56,6.88,6.88,0,0,1-4.33-6.88,8.28,8.28,0,0,1,.32-2.19,7.36,7.36,0,0,1,1-2A6.9,6.9,0,0,1,200,99.27a8.53,8.53,0,0,1,4.36-.45,10.7,10.7,0,0,1,1.09.25l.57.18a3,3,0,0,1,.72.34,19.6,19.6,0,0,1,2.83,2.23,2.15,2.15,0,0,1,.88.23l.78-1.09,1.56-2.21,2.86-4,5.6-7.89c.5-.76.93-1.49,1.4-2.24s1.42-1.59.2-2a25.45,25.45,0,0,0-4.56-2.81c-.83-.39-1.7-.75-2.58-1.08l-1.18-.42-1.09-.36a38.51,38.51,0,0,0-4.48-1.1A43.17,43.17,0,0,0,196.73,76a34.27,34.27,0,0,0-15.55,5.49,30.52,30.52,0,0,0-11,13,27.76,27.76,0,0,0-2.06,13.63,34.12,34.12,0,0,0,3.79,13.22A29.39,29.39,0,0,0,184,133.81a33.71,33.71,0,0,0,16.53,4.08c.83.06,1.52-.28,1.58-.69s-.59-.76-1.38-.81A39.06,39.06,0,0,1,185,131.85a28.67,28.67,0,0,1-11.54-11.51,28,28,0,0,1-3.26-10.81,32.39,32.39,0,0,1,.8-11.17,26.4,26.4,0,0,1,13.89-17.1A47,47,0,0,1,189.39,79,34.82,34.82,0,0,1,198,77.1a38.19,38.19,0,0,1,8.68.18,41,41,0,0,1,8.41,2.13,32.18,32.18,0,0,1,4.36,1.92c.69.38,1.35.79,2,1.23.32.22.65.46,1,.7l.12.09a.75.75,0,0,1-.07.12l-.15.25-.31.49-1.47,2.34L218.86,89l-3,4.3-3,4.39-1.67,2.4-.83,1.2-.11.15s-.07,0-.11-.06l-.23-.14a2.85,2.85,0,0,0-.51-.2,14.31,14.31,0,0,0-2.63-1.88,3.71,3.71,0,0,0-.68-.3l-.59-.18a11.21,11.21,0,0,0-1.15-.25,9.1,9.1,0,0,0-4.59.5,7.45,7.45,0,0,0-3.51,2.87,7.56,7.56,0,0,0-1,2.07,8.48,8.48,0,0,0-.33,2.31,7.33,7.33,0,0,0,4.63,7.27,9.1,9.1,0,0,0,4.56.57,7.4,7.4,0,0,0,1.14-.22c.19,0,.37-.1.56-.16l.27-.09.35-.13a14,14,0,0,0,2.68-1.87l.48-.43a3.13,3.13,0,0,0,.54-.19l.24-.13c.08,0,.15.19.23.28l.91,1.23,1.85,2.49,3.29,4.41,3.4,4.52c.65.86,1.34,1.75,1.91,2.61l.91,1.31.45.66.23.33.12.16c0,.06-.08.09-.12.13a36.71,36.71,0,0,1-5.17,3.65c-.48.28-1,.54-1.49.8l-.77.38-.69.33c-.83.39-1.66.75-2.52,1.11a48.22,48.22,0,0,1-10.76,2.92c-.09,0-.13.08-.08.13S202.2,138.27,202.3,138.26Z" transform="translate(-45.01 -47.16)"/><path class="cls-2" d="M202.29,136a47.15,47.15,0,0,0,10.15-2.77,44.58,44.58,0,0,0,4.68-2.2,24.92,24.92,0,0,0,4.07-2.73c.07,0,0-.07,0-.12l-.1-.12-.19-.26-.39-.5-.76-1-1.49-2-3.07-4.12-3-4.09-1.39-1.86-.69-.9c-.06-.06-.11-.18-.17-.19l-.21.21c-.14.14-.28.28-.43.41l-.39.32a8.89,8.89,0,0,1-2,1.08,11.38,11.38,0,0,1-2.63.65,10.77,10.77,0,0,1-5.46-.73,9.56,9.56,0,0,1-2.44-1.44,8.65,8.65,0,0,1-1.88-2.17,9,9,0,0,1-1.12-2.64,11.06,11.06,0,0,1-.28-2.79,10.84,10.84,0,0,1,.41-2.8,9.89,9.89,0,0,1,1.25-2.57,9.27,9.27,0,0,1,4.39-3.54,10.8,10.8,0,0,1,5.54-.57,10.29,10.29,0,0,1,1.36.3l.64.2.51.19a6.87,6.87,0,0,1,1.88,1.1,6,6,0,0,1,.68.66l.54-.75,1.08-1.52,2.38-3.33,4.9-6.89,1.14-1.61c.29-.52,1.17-1.14.25-1.48a18.77,18.77,0,0,0-3.42-1.92c-.61-.26-1.22-.51-1.85-.74s-1.35-.48-2-.69a36.25,36.25,0,0,0-4.23-1A40.51,40.51,0,0,0,197,78.26a32.12,32.12,0,0,0-14.54,5.09,28.29,28.29,0,0,0-10.19,12A25.5,25.5,0,0,0,170.4,108a31.91,31.91,0,0,0,3.52,12.25,27.07,27.07,0,0,0,11.14,11.51,31.63,31.63,0,0,0,15.54,3.82c.78.05,1.44-.28,1.5-.69s-.56-.76-1.31-.82a36.65,36.65,0,0,1-14.73-4.26,26.47,26.47,0,0,1-10.6-10.56,25.65,25.65,0,0,1-3-10,30,30,0,0,1,.73-10.39A24.15,24.15,0,0,1,186,83.26a44.79,44.79,0,0,1,4.19-2.15,32.1,32.1,0,0,1,8-1.73,35.86,35.86,0,0,1,8.16.18,38.71,38.71,0,0,1,7.86,2,29.29,29.29,0,0,1,2.95,1.25c.47.25.94.51,1.4.81.22.15.45.3.66.47l.09.06-.06.08-.11.17-.22.33-2.15,3.19L214,92l-2.68,3.89-1.13,1.61-.56.8-.07.11-.08-.09-.17-.17a3.8,3.8,0,0,0-.37-.33,6.18,6.18,0,0,0-1.71-1l-.46-.17-.66-.2a13.27,13.27,0,0,0-1.42-.31,11.37,11.37,0,0,0-5.77.64,9.72,9.72,0,0,0-4.58,3.73,11.55,11.55,0,0,0-.73,1.27,9.17,9.17,0,0,0-.55,1.43,10.5,10.5,0,0,0-.42,2.91A10.77,10.77,0,0,0,193,109a9.17,9.17,0,0,0,1.18,2.76,8.92,8.92,0,0,0,2,2.26,10.11,10.11,0,0,0,2.55,1.5,11.27,11.27,0,0,0,5.7.73,11.43,11.43,0,0,0,1.42-.26l.69-.2.34-.11.24-.1a7.51,7.51,0,0,0,1.79-1l.3-.25a4.48,4.48,0,0,0,.4-.36l.18-.2c.06,0,.11.12.16.18l.63.83,1.27,1.69,3,4,3,4,1.4,1.82.73.93.37.48.19.23.09.12s0,.06-.07.1a30.66,30.66,0,0,1-8.3,4.77,45.79,45.79,0,0,1-10.08,2.83c-.09,0-.13.08-.08.12S202.2,136,202.29,136Z" transform="translate(-45.01 -47.16)"/><path class="cls-2" d="M202.28,133.68a44.73,44.73,0,0,0,9.47-2.67c.74-.3,1.51-.64,2.24-1a3.54,3.54,0,0,0,.44-.22l.35-.19.68-.39a14.85,14.85,0,0,0,2.39-1.71c-.56-.81-1.25-1.61-1.82-2.37l-1.14-1.51-1.57-2.11-1.56-2.1-.78-1-.42-.55-.82-1-.4-.51s-.06-.1-.1-.11l-.12.13a2.72,2.72,0,0,1-.24.24l-.23.19a4.53,4.53,0,0,1-1.12.65l-.61.21c-.27.08-.53.16-.8.22a13.21,13.21,0,0,1-8.23-.6,11.31,11.31,0,0,1-3-1.79,10.78,10.78,0,0,1-2.38-2.73,11.37,11.37,0,0,1-1.39-3.31,13.7,13.7,0,0,1-.35-3.37,13,13,0,0,1,.52-3.41,10.5,10.5,0,0,1,.68-1.71,12.14,12.14,0,0,1,.85-1.47A11.59,11.59,0,0,1,198.29,95a13.16,13.16,0,0,1,6.72-.7,14,14,0,0,1,1.61.36c.24.06.58.17.72.22l.28.1a4.13,4.13,0,0,1,1,.63A4.4,4.4,0,0,1,209,96l.3-.41.62-.84.62-.85,1.26-1.77,4.21-5.88.67-.92c.17-.31.68-.67.15-.86a9.68,9.68,0,0,0-2-1.12c-.35-.16-.71-.31-1.07-.44l-.81-.29-1-.32a35.39,35.39,0,0,0-4-1,52.21,52.21,0,0,0-5.27-.75,31.23,31.23,0,0,0-5.47,0c-9.75.94-18.7,6.37-22.9,15.64a23.22,23.22,0,0,0-1.76,11.73,29.64,29.64,0,0,0,3.24,11.27,24.73,24.73,0,0,0,10.21,10.57,29.11,29.11,0,0,0,14.54,3.55c.74.06,1.37-.28,1.42-.69s-.53-.76-1.24-.81a34.36,34.36,0,0,1-13.72-4,24.06,24.06,0,0,1-9.65-9.61,23.37,23.37,0,0,1-2.74-9.09,28,28,0,0,1,.67-9.6A21.87,21.87,0,0,1,187.1,85.27a39.46,39.46,0,0,1,3.87-2,30.71,30.71,0,0,1,7.48-1.6,38.19,38.19,0,0,1,3.86-.13,29.63,29.63,0,0,1,3.76.31,36.85,36.85,0,0,1,7.32,1.85,15.85,15.85,0,0,1,1.47.63c.24.12.47.25.7.39l.35.23,0,0,0,0,0,.08-.11.16-1,1.62-2.57,3.76L209.79,94l-.57.82-.29.41,0,0-.05,0-.08-.09-.19-.17a3.28,3.28,0,0,0-.87-.5l-.24-.09c-.15-.05-.49-.16-.74-.22a12.82,12.82,0,0,0-1.68-.36,13.63,13.63,0,0,0-7,.76,12,12,0,0,0-5.65,4.61,14.58,14.58,0,0,0-.88,1.52,11.45,11.45,0,0,0-.7,1.79,13.5,13.5,0,0,0-.51,3.53,13.86,13.86,0,0,0,.38,3.49,11.23,11.23,0,0,0,.61,1.8,12.37,12.37,0,0,0,.85,1.62,11.68,11.68,0,0,0,2.49,2.83,12.81,12.81,0,0,0,3.12,1.84,13.62,13.62,0,0,0,6.83.89,12.11,12.11,0,0,0,1.7-.31l.82-.23.4-.14.14,0a4.52,4.52,0,0,0,.94-.55l.16-.14.21-.2.09-.11s.06.06.09.09l.34.43.69.88.38.48.78,1.06,1.58,2.1,1.58,2.11.4.52.28.37.39.49.83,1,.44.53.23.27.11.14.06.07s0,0,0,.05a12.79,12.79,0,0,1-2.07,1.58l-.61.37-.32.18-.17.09-.27.14c-.73.35-1.48.69-2.22,1a43.65,43.65,0,0,1-9.41,2.73c-.08,0-.12.07-.07.12S202.19,133.68,202.28,133.68Z" transform="translate(-45.01 -47.16)"/><path class="cls-2" d="M202.27,131.38a42.69,42.69,0,0,0,8.79-2.55c.68-.29,1.41-.62,2.1-1l.22-.1.06,0,.13-.1.24-.18a5.12,5.12,0,0,0,.7-.7c-.24-.28-.5-.54-.7-.77l-.15-.17,0,0-.2-.27L213,125l-1.56-2.11-1.56-2.1-.78-1.05-.14-.16-.24-.25-.12-.11s0,0-.05,0l-.07.08-.06.06a1.2,1.2,0,0,1-.26.21l-.62.21c-.31.1-.61.18-.93.26a15.72,15.72,0,0,1-9.64-.72,14.78,14.78,0,0,1-3.57-2.14,13.33,13.33,0,0,1-2.87-3.31,14.85,14.85,0,0,1-1-1.87,13.21,13.21,0,0,1-.69-2.1,15.77,15.77,0,0,1-.41-3.94,15.23,15.23,0,0,1,.61-4,13.94,13.94,0,0,1,.82-2.07,16.17,16.17,0,0,1,1-1.73,14.62,14.62,0,0,1,2.8-3.1,13.59,13.59,0,0,1,3.74-2.17,15.37,15.37,0,0,1,7.89-.83,15.63,15.63,0,0,1,1.88.41l.45.13.34.11,0,0a1,1,0,0,1,.2.15l.08.09.07-.07.14-.16.15-.17L210,90.8l2.56-3.6.64-.89.06-.09,0,0,.05-.06.19-.22.19-.24c.06-.08.2-.18.07-.24a2.6,2.6,0,0,0-.51-.32l-.29-.13-.63-.23-.91-.3a32.92,32.92,0,0,0-3.71-.91c-1.65-.3-3.25-.57-4.9-.72a29.28,29.28,0,0,0-5.13,0,27.62,27.62,0,0,0-12.52,4.3,23.6,23.6,0,0,0-8.54,9.9A21.11,21.11,0,0,0,175,107.79a27.49,27.49,0,0,0,1,5.35,28.72,28.72,0,0,0,2,5,22.5,22.5,0,0,0,9.27,9.64A27,27,0,0,0,200.75,131c.7.06,1.3-.28,1.35-.69s-.5-.76-1.18-.81a32.11,32.11,0,0,1-12.7-3.73,23.07,23.07,0,0,1-5-3.75,21.27,21.27,0,0,1-3.69-4.92,20.7,20.7,0,0,1-1.65-3.94,23.83,23.83,0,0,1-.83-4.28,25.84,25.84,0,0,1,.61-8.82,19.64,19.64,0,0,1,10.57-12.8,38.52,38.52,0,0,1,3.55-1.85A27.43,27.43,0,0,1,198.69,84a33.7,33.7,0,0,1,3.63-.12,27,27,0,0,1,3.47.28c1.14.17,2.35.41,3.5.7.57.15,1.14.31,1.71.49l.86.28.71.25s0,0,0,0,0,0,0,0h0l0,.06-.18.26-.72,1-1.44,2.1-2,2.91s0,.07-.06,0l0,0h0l-.36-.11-.46-.14a16.11,16.11,0,0,0-10.07.48,14.1,14.1,0,0,0-3.85,2.27A14.73,14.73,0,0,0,190.54,98a17,17,0,0,0-1,1.78,14.08,14.08,0,0,0-.84,2.15,15.69,15.69,0,0,0-.6,4.14,16,16,0,0,0,.44,4.07,14.2,14.2,0,0,0,.73,2.17l.25.54.23.45c.16.31.34.62.53.93a13.88,13.88,0,0,0,3,3.4,15,15,0,0,0,3.69,2.18,16,16,0,0,0,8,1,14.38,14.38,0,0,0,2-.36q.49-.12,1-.27l.47-.15.06,0h0l.08-.11,0,0c0-.08.06-.06.1,0a.42.42,0,0,1,.12.08s0,0,.1.09l.78,1.06,1.58,2.1,1.58,2.1.39.53.18.23,0,0,.11.09a6.49,6.49,0,0,1,.54.48,1.88,1.88,0,0,1-.38.55l-.16.17-.09.09a.16.16,0,0,1-.06,0l-.26.13c-.68.33-1.4.66-2.07.95a40.56,40.56,0,0,1-8.73,2.62c-.08,0-.12.08-.07.13S202.18,131.38,202.27,131.38Z" transform="translate(-45.01 -47.16)"/><path class="cls-1" d="M249.2,109.6v22.9H226.1V56.9h23.1V100h.3L262,79.9h26.8l-17,23.7,16.9,28.9H261.8l-12.3-22.9Z" transform="translate(-45.01 -47.16)"/><path class="cls-2" d="M244.16,112.47c2.39,3.54,4.72,7.18,7,10.88q1.71,2.78,3.38,5.59l.84,1.41.42.71.53.94,2.8,5,16.1-.28,20.5-.15-6.56-11.06c-1-1.64-1.95-3.28-2.93-4.91l-2-3.28-8.14-13.48.83-1.21,2-2.83,4.23-5.94,12.58-17.49-35.84-.17-2.65,4.22-.81,1.25-1.19,1.83-1.14,1.74-.55.84-.27.42c-.05.05-.07.18-.18.14s0-.19,0-.27l.07-4.47,0-7.29c0-2.93.09-5.86.2-8.81l.09-2.2,0-1.49,0-1.91c0-2.59.1-5.2.16-7.81l-2,0L237,52.12,231,52,221.15,52c0,4-.08,7.95-.12,11.94,0,2.33-.09,4.67-.13,7-.11,4.7-.24,9.43-.41,14.25-.49,13.66.37,26.83.17,40.38l-.12,12.53,11.07.1,6,.09,6.07.08,11.34,0V122.24c0-3.42-.07-6.85-.16-10.27,0-1.24-.3-2.28-.72-2.37s-.76.91-.79,2.14l-.31,10.38-.11,5.74-.08,8.34-15.26-.1-15.12,0q0-5.42,0-10.81c-.05-11.45-.1-22.77-.07-34.11,0-5.67.08-11.34.11-17q.15-10.17.29-20.47l2.91,0c2.08,0,4.08,0,6.13-.08l2.09-.1c.66,0,1.31,0,2,0l16.6.11q-.1,12.12-.21,24.21c0,2,0,3.92,0,5.89,0,1.72,0,3.44,0,5v.55c0,.06.12,0,.16,0l.4-.67.8-1.32,1.56-2.56,5-8,34.72,0L282.85,93.59l-7.26,10.19,8.32,13.87,4.77,8q3.1,5.2,6.2,10.43l-10.62.08-9,.11-15.88.37-2.72-4.79-.53-.92-.42-.7-.85-1.41-3.42-5.57q-3.45-5.53-7.06-10.85l5.16,3.08-.18,0c-.14,0-.2.07-.12.12s0,0,.09,0l.1,0h.11l-5.34-3.19Z" transform="translate(-45.01 -47.16)"/><path class="cls-2" d="M246.18,111.38q3.58,5.33,7,10.88c1.14,1.85,2.27,3.72,3.38,5.59l1.73,3,2.21,3.87,14.73-.29,16.5-.14c-1.7-2.85-3.39-5.71-5.09-8.55-1.46-2.42-2.91-4.84-4.37-7.25l-8.9-14.77,7.95-11.18,10-13.87-30.09-.16-5.8,9.14L253,91.36l-1.18,1.85-.58.92c-.11.13-.15.39-.38.32-.07,0,0-.07,0-.11v-.43q.06-9.66.11-19.34c0-6.12.36-10.73.52-19.92l-1.55,0L237,54.41l-13.56-.16q0,4.81-.11,9.64c-.05,2.33-.09,4.67-.14,7-.1,4.7-.23,9.43-.41,14.25-.49,13.66.37,26.83.17,40.38l-.12,10.23,14.83.2,6,.07,9.17.05V122.24c0-3.42-.08-6.85-.17-10.27,0-1.24-.3-2.28-.71-2.37s-.76.91-.79,2.14l-.31,10.38-.11,5.41-.08,6.38-13-.11-12.83,0c0-2.84,0-5.67,0-8.51,0-11.45-.1-22.77-.07-34.11,0-5.67.08-11.34.12-17q.14-9,.29-18.18l2.2,0c1.57,0,3.07,0,4.61-.08s2.66-.14,4-.14l14.3.11c-.07,7.32-.14,14.61-.21,21.92,0,3.09,0,6.19,0,9.3s0,6,0,9v1c0,.08.05,0,.11.06s.12,0,.16,0l.73-1.18,1.43-2.35L255.31,89l6.18-10,29,.05L281,92.25l-8.12,11.4,9.07,15.16,8.95,14.94-15.66.2-14.51.36-2.13-3.69-1.74-2.91c-1.14-1.87-2.28-3.72-3.42-5.58-2.3-3.68-4.65-7.31-7.06-10.85l3.14,1.88h-.18c-.14,0-.2.08-.12.13s0,0,.09,0h.21l-3.32-2Z" transform="translate(-45.01 -47.16)"/><path class="cls-2" d="M248.2,110.3c2.39,3.54,4.72,7.18,7,10.88q1.71,2.77,3.39,5.59l3.28,5.6c4.34-.13,8.89-.22,13.36-.28l12.5-.14q-3.74-6.21-7.44-12.35l-4.68-7.75-5-8.3,8.82-12.4,7.36-10.24-24.35-.16L261.05,83l-1.75,2.62-3.55,5.32-3.52,5.31-1.75,2.65-.87,1.33c-.17.18-.23.56-.55.45-.09,0-.05-.08-.07-.13v-.18l0-.37L248.72,94l-.12-3c0-.46,0-1.1,0-1.65V87.7l0-13.13c0-2.93.09-5.86.2-8.81L249,61.4l.15-4.46-1.12,0-22.3-.37c-.09,4.78-.17,9.55-.26,14.36s-.23,9.43-.41,14.25c-.49,13.66.38,26.83.18,40.38l-.12,7.94,12.53.19,5.83.08,7,0V122.24c0-3.42-.08-6.85-.17-10.27,0-1.24-.3-2.28-.72-2.37s-.76.91-.79,2.14l-.3,10.38-.2,9.5-4.94-.07-5.73,0-10.53,0,0-6.22c0-11.45-.09-22.77-.06-34.11q.06-8.5.11-17,.06-4.27.12-8.58l.08-4,.09-3.36,1.49.05a29.21,29.21,0,0,0,3.11-.09c1.24-.06,2.62-.14,3.91-.13l12,.11q-.1,9.82-.21,19.62,0,6.34,0,12.71v1.63c0,.43.09.8.13,1.2l.28,2.34c.18,1.56.37,3.12.55,4.68l.08.71,0,.35c0,.08.08.06.15.06s.15,0,.2,0l1-1.41,1.92-2.8,3.82-5.58,3.81-5.57,1.86-2.73,1.29-2.07,23.24,0q-8,11.1-15.88,22.19l5.12,8.63L280,120l6.93,11.5-11.66.19-6.72.15-6.42.22-3.22-5.4-3.42-5.57q-3.45-5.53-7.06-10.85l1.12.66-.18,0c-.14,0-.2.08-.12.12s0,0,.09.06h.21l-1.3-.77Z" transform="translate(-45.01 -47.16)"/><path class="cls-2" d="M250.22,109.21c2.4,3.55,4.72,7.18,7,10.88,1.14,1.85,2.27,3.72,3.39,5.59l1.6,2.71,1,1.69,2-.09,3.24-.08,6.73-.12,8.5-.14-5.42-8.9L273.63,113l-5.72-9.59,9.68-13.61,4.76-6.6-18.61-.16-.8,1.25-.05.07-.09.13-.28.35-.54.71L260.89,87l-4.34,5.65-4.3,5.64-2.14,2.81L249,102.48c-.2.2-.3.6-.64.49-.1,0-.07-.07-.1-.11l0-.16-.07-.31-1.22-5-.6-2.5-.07-.31c0-.14,0-.37,0-.55V90.61l0-16c0-2.93.09-5.86.2-8.81l.09-2.2,0-.56,0-.33,0-.66.15-2.78-.68,0-3.68-.1L237,59l-9-.16c-.08,4-.17,8-.25,12.06-.11,4.7-.24,9.43-.41,14.25-.49,13.66.37,26.83.17,40.38l-.12,5.64,10.24.2,10.53.13,0-4.28,0-5c0-3.42-.08-6.85-.16-10.27,0-1.24-.31-2.28-.72-2.37s-.76.91-.79,2.14l-.31,10.38-.11,4.74-.08,2.46-2.76-.06-5.62,0-8.24,0,0-3.92c0-11.45-.1-22.77-.07-34.11,0-5.67.08-11.34.12-17l.12-8.58,0-2.15,0-.69,0-.45.09-1.72.79,0a8.44,8.44,0,0,0,1.59-.08l.38,0,.5,0,1,0c.66,0,1.31,0,2,0l6.64,0,3.07.06,0,2.18-.06,4.71-.09,10.44q0,8.06-.05,16.12V96a8.57,8.57,0,0,0,.33,1L246.4,99c.46,1.28.92,2.57,1.37,3.86l.21.57.1.29c0,.07.09,0,.17,0s.16,0,.22,0l1.16-1.49,2.32-3,4.63-5.92,4.61-5.9,2.19-2.81.66-1.06,17.5,0-14.15,19.76,5.88,9.92,4.7,7.81,3.08,5.08,1.83,3-3,.09-1.56.05-3.11.06-6.72.15-3.22.1-1.82.11-1-1.5-1.62-2.69L257.46,120c-2.3-3.68-4.65-7.31-7-10.85l-.41-.6-.5.06-.18,0c-.14,0-.2.07-.12.12s0,0,.09.05h.21l.72.43Z" transform="translate(-45.01 -47.16)"/><path class="cls-2" d="M252.24,108.13c2.4,3.54,4.72,7.18,7,10.88,1.14,1.84,2.27,3.71,3.39,5.59l1.54,2.59.44.6.76-.1,3.13-.08,6.73-.11,3,0,.55,0,1-.06-.68-1-.16-.22-.08-.11-.49-.82-2-3.28-4.68-7.74-2.33-3.88-4.14-7,10.55-14.81,1.8-2.51.35-.47-.5,0h-2l-6.7,0-3.33,0-.35,0-.19.26-2.35,2.74-5.12,6-5.09,6-2.54,3-1.26,1.49c-.23.2-.36.63-.74.51-.1,0-.08-.05-.12-.09l-.07-.12-.13-.25-2.18-4-1.08-2-.14-.25c0-.15,0-.46,0-.68V93.53q0-9.47,0-19c0-2.93.09-5.86.2-8.81l.09-2.2,0-.56a1.05,1.05,0,0,0,0-.13l0-.24c.05-.33.11-.71.15-1.1l-.25,0-.66-.06-.35,0-.17,0h-.64L237,61.3l-5-.09-1.66-.08-.06,1,0,.54V63l0,.88q-.06,3.49-.14,7c-.1,4.7-.23,9.43-.41,14.25-.49,13.66.37,26.83.17,40.38v1.22l0,.7-.06,1.43,2.33.1,5.61.09,8.24.13v-7c0-3.42-.08-6.85-.17-10.27,0-1.24-.3-2.28-.71-2.37s-.77.91-.8,2.14l-.3,10.38-.06,2.59c0,.8,0,2.05-.05,1.81l-.09.51-.57-.07-5.51,0-5.94,0v-1.63c0-11.45-.09-22.77-.06-34.11,0-5.67.07-11.34.11-17q.06-4.27.12-8.58l0-2.15V63h0v0l0-.05a.19.19,0,0,1,.09-.09l.08,0s0,0,.08-.09,0,0,.06,0h.24l.5,0,1,0c.66,0,1.31,0,2,0l6.64,0c.79,0,.51,0,.6,0h.07l.11,0a1.67,1.67,0,0,1-.06.2c0-.35,0,1,0,1.78l0,2.61c0,3.48-.07,7-.1,10.44q0,9.75,0,19.53v2.63c0,.14,0,.12,0,.17l.07.09.14.19.27.38,1.09,1.52,2.2,3,.33.45.16.23s.11,0,.19,0,.18,0,.25,0l1.36-1.57,2.72-3.13,5.43-6.26,5.42-6.24,2.52-2.9,0,0,10.08,0h1.67L277,86l0,0-1.61,2.24-10.73,15,6.63,11.2,4.7,7.81,2,3.25.44.73,0,0,.08.09.37.48-.44.08-.29,0-2.93.06-6.72.16-1.68,0-.84,0-.59,0-.56.12-.37-.41s0,0-.08-.11l-.21-.35-.42-.7-.85-1.41-3.41-5.57c-2.31-3.69-4.65-7.31-7.06-10.85l-1.31-1.93-1.62.17-.18,0c-.14,0-.2.08-.12.12s0,0,.09.06h.21l2.74,1.65Z" transform="translate(-45.01 -47.16)"/></svg>