<svg id="Layer_1" data-name="Layer 1" xmlns="http://www.w3.org/2000/svg" viewBox="0 0 244.26 83.34"><defs><style>.cls-1,.cls-4{fill:none;}.cls-2{opacity:0.7;}.cls-3{fill:#3f3b3c;}.cls-4{stroke:#3f3b3c;stroke-width:0;}</style></defs><path class="cls-1" d="M81.4,134.5a36.39,36.39,0,0,1-12.3-2,28.6,28.6,0,0,1-9.7-5.7,26,26,0,0,1-6.4-8.9,28.71,28.71,0,0,1-2.3-11.7,28.13,28.13,0,0,1,2.35-11.65,25.91,25.91,0,0,1,6.55-9,29.58,29.58,0,0,1,9.85-5.7,36.56,36.56,0,0,1,12.25-2,33.67,33.67,0,0,1,5.45.45,39,39,0,0,1,5.3,1.25,37.15,37.15,0,0,1,4.7,1.8,18.18,18.18,0,0,1,3.65,2.2L89.3,100.2a7.79,7.79,0,0,0-3.15-2.08,10.81,10.81,0,0,0-3.75-.72,10,10,0,0,0-3.3.55,8,8,0,0,0-2.85,1.7,9.26,9.26,0,0,0-2,2.8,9.66,9.66,0,0,0,0,7.7,8.05,8.05,0,0,0,2,2.7,8.86,8.86,0,0,0,2.85,1.6,10,10,0,0,0,3.3.55,10.56,10.56,0,0,0,3.9-.75,8.2,8.2,0,0,0,3.1-2L101,128.33a28.72,28.72,0,0,1-8.55,4.38A34.08,34.08,0,0,1,81.4,134.5Z" transform="translate(-49.8 -52.24)"/><g class="cls-2"><path class="cls-3" d="M81.34,134.93l-2.11-.34c-1.37-.23-3.4-.57-6-1.23,0,0-.54-.17-1.58-.56a33.4,33.4,0,0,1-4.44-2.05,27.92,27.92,0,0,1-6.24-4.6,25.16,25.16,0,0,1-5.7-8.5,27.67,27.67,0,0,1-1.79-12.49,27,27,0,0,1,1.41-7,23.88,23.88,0,0,1,3.59-6.64,26.4,26.4,0,0,1,13.94-9,35.75,35.75,0,0,1,9.4-1.29,34.88,34.88,0,0,1,9.91,1.43l.91.26,1.07.39c.36.13.8.3,1.31.51l.83.36.36.17.06,0a1.41,1.41,0,0,1,.27.12c.06.06-.06.18-.1.31l-4.44,6.73-3.4,5.32a2.17,2.17,0,0,0-.61-.3,13.33,13.33,0,0,0-2.82-.89,11.75,11.75,0,0,0-5.68.23,9.88,9.88,0,0,0-4.18,2.37,8.81,8.81,0,0,0-1.82,2.44l-.21.47a12.74,12.74,0,0,0-.48,1.43,11.17,11.17,0,0,0,.09,5.57,8.89,8.89,0,0,0,1.84,3.49,8.42,8.42,0,0,0,3.79,2.52,10.22,10.22,0,0,0,5.1.36,10.59,10.59,0,0,0,2.66-.86l.65-.34a6.22,6.22,0,0,0,.77-.53,18,18,0,0,0,1.52-1.41l.2-.08.09,0,.09.12.36.48.74,1,1.48,2,2.61,3.52,2.73,3.77,3,4.27c.31.43.58.86.86,1.29l.43.64.1.16c0,.05.12.11,0,.15l-.33.23A25.79,25.79,0,0,1,99,130.56c-.23.14-.47.27-.71.39l-.62.31q-.62.3-1.26.57c-.85.36-1.72.69-2.61,1a31.87,31.87,0,0,1-11.5,1.63,25.47,25.47,0,0,0,2.94,0A30.66,30.66,0,0,0,93.43,133c.86-.28,1.75-.6,2.67-1,.46-.19.93-.4,1.4-.62l.71-.35c.26-.14.57-.3.85-.47a19.11,19.11,0,0,0,1.69-1.07l.85-.6.42-.32a.39.39,0,0,0,.1-.08l-.07-.1-.15-.22c-.39-.58-.76-1.17-1.2-1.78l-1.25-1.76c-1.42-2-3-4.09-4.59-6.28L92.33,115l-1.49-2-.79-1c-.26-.29-.5-.89-.8-.53a13.63,13.63,0,0,1-1.66,1.5,8.21,8.21,0,0,1-1.62.91,10.59,10.59,0,0,1-3.47.85,9.62,9.62,0,0,1-7.16-2.36l-.22-.37a10.34,10.34,0,0,1-.56-1.12,9.67,9.67,0,0,1-.76-4.83,8.93,8.93,0,0,1,.91-3.52,9.08,9.08,0,0,1,2.92-3.39,9.7,9.7,0,0,1,5.23-1.55,11.6,11.6,0,0,1,3.18.44A8.08,8.08,0,0,1,89,99.5l.2.17s0,0,0,0l0-.07.09-.16.33-.61s0,.11-.12.36l-.18.48-.07.16s0,.15-.08.1L89,99.82c-.27-.17-.68-.32-1.32-.62a6.23,6.23,0,0,0-1.1-.4,11.68,11.68,0,0,0-1.24-.26,10.18,10.18,0,0,0-3.1-.08,9.08,9.08,0,0,0-3.62,1.26,7.53,7.53,0,0,0-2.83,3.54,7,7,0,0,0-.45,2.53,8,8,0,0,0,.45,2.85,5,5,0,0,0,.28.63c.13.23.26.45.4.66a5.57,5.57,0,0,0,1,1.13,7,7,0,0,0,2.94,1.49,8.35,8.35,0,0,0,3.73.06A8.86,8.86,0,0,0,86,112a4.85,4.85,0,0,0,.79-.46,7.19,7.19,0,0,0,.9-.8c.61-.59,1.26-1.24,1.85-1.84l.36.29.37.53.76,1.06,1.52,2.15,2.09,3-.77-1.11-1.37-1.9L91.17,111l-.79-1.08-.41-.58c-.15-.21-.27-.21-.43-.37l-1.42,1.45a8.74,8.74,0,0,1-1.61,1.4,6.56,6.56,0,0,1-.6.33l-.5.22a8.65,8.65,0,0,1-1.12.36,8.23,8.23,0,0,1-5.76-.59,6.39,6.39,0,0,1-3.31-4.33,9.16,9.16,0,0,1-.17-2.32,6.5,6.5,0,0,1,.49-2.31,8,8,0,0,1,1.4-2.22,6.69,6.69,0,0,1,2.2-1.63,9,9,0,0,1,3-.74,9.33,9.33,0,0,0-1,.3,8.63,8.63,0,0,0-2.35,1.21A7.52,7.52,0,0,0,76.49,103c-.08.16-.15.33-.22.5s-.1.3-.15.47a7.35,7.35,0,0,0-.21,1,11.18,11.18,0,0,0,0,2.45,7,7,0,0,1-.18-1.11,6.54,6.54,0,0,1,4.39-6.94A8.22,8.22,0,0,1,84,99a11.05,11.05,0,0,1,2.19.57l.26.11.42.22a6.36,6.36,0,0,1,.81.61c.54.46,1.09,1,1.59,1.47a1.11,1.11,0,0,1,.29-.07s.1-.09.14-.16l.14-.21.57-.87,1.14-1.77,1.91-3,4-6.16,2.25-3.45c.45-.68.9-1.37,1.31-2l.31-.51c.08-.16.33-.35,0-.46s-.67-.49-1-.72a18.8,18.8,0,0,0-2.19-1.25c-.76-.37-1.42-.64-2.15-.92A39.92,39.92,0,0,0,91.47,79a40.28,40.28,0,0,1,5.4,1.81,21,21,0,0,0-2.44-1,38.9,38.9,0,0,0-8.58-2A38.31,38.31,0,0,0,73,78.5,32,32,0,0,0,59.71,85a27.26,27.26,0,0,0-8.28,12.14,34.53,34.53,0,0,0-1.59,12.48,42.47,42.47,0,0,0,1.29,8.29s.22.55.65,1.48a29,29,0,0,0,2.09,3.69,26.68,26.68,0,0,0,3.91,4.58,28,28,0,0,0,5.57,4.05,31.12,31.12,0,0,0,12.16,3.71c3.47.29,5.8-.07,5.89-.43" transform="translate(-49.8 -52.24)"/><path class="cls-4" d="M86,96.84l-.77-.11a12.5,12.5,0,0,0-2.24,0,11,11,0,0,0-3.41.83,8.49,8.49,0,0,0-5.28,7.61,9.66,9.66,0,0,0,.36,2.87,7.1,7.1,0,0,0,1.36,2.57,7.51,7.51,0,0,0,5.47,2.54,9,9,0,0,0,3.3-.49,7.85,7.85,0,0,0,.8-.32l.39-.19.18-.1.37-.21A8.37,8.37,0,0,0,88,110.47l1.5-1.56c.36.17.71.77,1.08,1.24l1.11,1.51,1.93,2.62,2.78,3.84c.93,1.31,1.87,2.66,2.83,4l1.43,2.08c.73,1.07,1.64,2.29,2.27,3.39l.52.84c.06.14.23.29.2.41l-.42.31-1.68,1.2c-.57.38-1.15.76-1.76,1.1-.31.18-.6.35-.93.51l-.66.32a33.9,33.9,0,0,1-5.33,1.92,31.78,31.78,0,0,1-11.51,1" transform="translate(-49.8 -52.24)"/><path class="cls-4" d="M99.08,86.24l-2.33,4.19L94,95.24l-1.7,3-1.41,2.28-.76,1.24-.4.64c-.07.14-.14.12-.2.16l-.22.13c-.41-.39-.86-.82-1.33-1.23a7.19,7.19,0,0,0-1.42-1.12l-.2-.1-.11-.06,0,0L86,100l-.43-.13c-.31-.09-.64-.17-.95-.24a8.1,8.1,0,0,0-3.79.14,6,6,0,0,0-3.1,1.93,6.94,6.94,0,0,0-1,1.62,5.26,5.26,0,0,0-.45,1.75,8.69,8.69,0,0,0,.06,2,5.07,5.07,0,0,0,.55,1.7A5.14,5.14,0,0,0,78,110.27a5.88,5.88,0,0,0,1.53,1,7.22,7.22,0,0,0,3.92.47,7.61,7.61,0,0,0,2-.58l.23-.11.13-.07.34-.19a5.11,5.11,0,0,0,1.2-1l2.46-2.57,4.63,6.52,2.52,3.69,2.44,3.68,1.19,1.85.58.92,1,1.51" transform="translate(-49.8 -52.24)"/></g><path class="cls-1" d="M105.4,56.9H129v75.6H105.4Z" transform="translate(-49.8 -52.24)"/><g class="cls-2"><path class="cls-3" d="M105.46,56.47a54.7,54.7,0,0,0,7.41.74s1.41.17,4.13.44l5,.46,3.24.26.43,0,.23,0,.46.07.84.13L127.06,60l0,.16,0,.37-.05.78-.1,1.59-.37,6.93c-.24,4.91-.45,10.4-.6,16.44-.31,12.07-.38,26.31,0,42.4l0,.46c0,.1,0,0,0,.08v.24l-.15,0-.13,0-1.73,0-9.75.22-2.62.11-2.81.12h-.17l-.11,0-.23,0-.56.08-.1-.6-.05-.35-.06-1-.22-4.17c-.16-2.61-.31-4.76-.43-5.74,0,0-4.14-22.58-1.41-60.54a286.69,286.69,0,0,0,.27,50,37.77,37.77,0,0,0-.71,5.91c-.12,2-.19,4.57-.11,7.69,0,1.57.11,3.27.23,5.12s.29,4,.52,5.76l1.75-.2-.42.15a15.69,15.69,0,0,1-1.65.37,14.91,14.91,0,0,1-.37-1.68c-.06-.39-.13-.83-.2-1.35l-.2-1.47c-.27-2-.55-4.72-.78-8.18-.47-6.92-.75-17-.49-31.51,0,0-.28,7,.92,37.76a68.74,68.74,0,0,1-1.27-13.88l.37,5.08q.15,2.55.37,6.33l.22,4.1,0,1.13.06,1.52.11,3.36,11.72-.45,6.27-.2,7.33-.19-.13-5.51c.07,3.29.1,5,.11,5.5-.19,0-.18,0,0,0,0-.78,0-4.86-.06-10.7,0-5.61,0-12.91,0-20.45.08-15.06.39-31,1.34-36.19V55.18l-5.45,0-3.93,0c-2.64,0-5.27.11-7.61.2-4.69.19-8.21.49-8.33,1" transform="translate(-49.8 -52.24)"/><path class="cls-4" d="M106.58,129.38a1.23,1.23,0,0,1-.07-.26l-.19-1.07c-.17-.94-.4-2.32-.66-4.12-.52-3.58-1.17-8.79-1.67-15.28a282.14,282.14,0,0,1,.73-51.75" transform="translate(-49.8 -52.24)"/><path class="cls-4" d="M121.75,132.59l-4.47.49-5.16.51-3.18.28-2.41.15-2.8.15-.21-4.1-.06-1,0-.72-.1-1.47q-.19-3-.4-6.2c-.25-4.29-.46-8.88-.59-13.61-.27-9.47-.23-19.5.43-28.9" transform="translate(-49.8 -52.24)"/></g><path class="cls-1" d="M139.3,64.7a11,11,0,0,1,.95-4.55,11.85,11.85,0,0,1,2.6-3.75,12.55,12.55,0,0,1,3.85-2.55,11.75,11.75,0,0,1,4.7-1,10.84,10.84,0,0,1,4.5,1,13,13,0,0,1,3.75,2.55,12,12,0,0,1,2.6,3.75,11.18,11.18,0,0,1,.95,4.55,11.35,11.35,0,0,1-3.55,8.35,12.86,12.86,0,0,1-3.75,2.45,11.3,11.3,0,0,1-4.5.9,12.26,12.26,0,0,1-4.7-.9,12.47,12.47,0,0,1-3.85-2.45,11.35,11.35,0,0,1-3.55-8.35Zm.4,15.2h23.1v52.6H139.7Z" transform="translate(-49.8 -52.24)"/><g class="cls-2"><path class="cls-3" d="M139.74,79.47a32.45,32.45,0,0,0,5.66.74s1.54.25,4.48.61c1.47.18,3.3.39,5.46.6l3.48.33.47,0,.22,0,.1,0,.38.08c.23.06.45.11.63.17l-.16.81,0,.17,0,.08a.29.29,0,0,0,0,.15l-.08,1.19c-.09,1.62-.19,3.31-.29,5.08-.18,3.55-.34,7.41-.44,11.58s-.15,8.63-.13,13.38c0,2.38.05,4.82.08,7.34,0,1.25.06,2.53.08,3.82l.06,1.94,0,1,0,.49v.13l.05.06v.19l-.1,0-.1,0-.06,0H159l-7.44.22-4,.22-3.82.23-.51,0H143l-.09,0-.37.07-.85.13-.13-.68-.07-.37a2.26,2.26,0,0,1-.07-.49c-.09-1-.18-1.78-.25-2.24,0,0-4.14-17.23-1.41-46.2a167.25,167.25,0,0,0,.27,38.19,19,19,0,0,0-.59,3.31c-.13,1.13-.23,2.55-.26,4.29q0,1.31,0,2.85c0,1.17.1,2.43.19,3.64,1.13-.08,2.28-.18,3.36-.3s2.22-.28,3.41-.46a5.89,5.89,0,0,1-1.31.5,20,20,0,0,1-2,.51c-1,.18-2.36.37-4.26.55q-.14-1.12-.27-2.67l-.12-1.66-.12-1.29c-.16-1.76-.29-3.79-.39-6.12-.21-4.67-.28-10.55-.1-18,0,0-.07,1.33,0,5.57,0,2.11.12,5,.26,8.73.17,4.08.38,9.17.64,15.48h.34l-.39.06c-.07-.27-.18-.78-.31-1.58-.06-.41-.13-.88-.2-1.45l-.1-.9c0-.32-.07-.7-.11-.87a43.92,43.92,0,0,1-.49-6.8l.25,2.59.28,3.24.07,1,.09,1.56c0,1.1.11,2.29.17,3.55l3.19-.15,1.65-.07,1.22-.08,5.36-.31,6.23-.29,3.43-.14,4.06-.12c0-1.12-.08-2.69-.13-4.31l.11,4.3c-.14,0-.14,0,0,0,0-1.79-.14-12.31-.07-23.87,0-5.75.14-11.67.34-16.65.11-2.49.24-4.74.4-6.61q.12-1.41.27-2.52c.1-1,.21-2,.33-2.75V78.18H157c-2.4,0-5.1.06-7.64.14-5.07.16-9.51.48-9.62,1.12" transform="translate(-49.8 -52.24)"/><path class="cls-4" d="M142.67,131.32l-.52.17a18.74,18.74,0,0,1-1.89.45,52.46,52.46,0,0,1-1.32-7.12c-.46-3.29-.9-7.29-1.18-11.85A164.8,164.8,0,0,1,139,79.9" transform="translate(-49.8 -52.24)"/><path class="cls-4" d="M157.27,132.59s-1.82.29-4.93.69c-1.55.21-3.42.44-5.55.68l-3.38.35-.47.05-.71,0-1.49.09-3.21.18c-.05-1.07-.11-2.16-.17-3.26l-.08-1.75,0-.45,0-.26,0-.53c-.1-1.4-.19-2.84-.29-4.32-.18-2.94-.32-6-.39-9.14A171,171,0,0,1,137,96.11" transform="translate(-49.8 -52.24)"/></g><g class="cls-2"><path class="cls-3" d="M138.87,64.68s.12-.26.31-.72l.76-2,.32-.49a13.18,13.18,0,0,1,1-1.31,12.6,12.6,0,0,1,6.4-4,10.47,10.47,0,0,1,1.9-.3,9.91,9.91,0,0,1,4.09.57,7.14,7.14,0,0,1,1,.44,10.72,10.72,0,0,1,1,.61,11.37,11.37,0,0,1,1.91,1.58,9.66,9.66,0,0,1,2.48,4.56l.07.24a10.42,10.42,0,0,1,.07,1.26,9.36,9.36,0,0,1-.68,3.63,9,9,0,0,1-1.43,2.64,18.19,18.19,0,0,1-3,2.85,4.77,4.77,0,0,1-1.14,1,8.33,8.33,0,0,1-4.28,1.3,10.23,10.23,0,0,1-7-2.49,9.75,9.75,0,0,1-2.77-3.88,9.63,9.63,0,0,1-.55-5.18,6.39,6.39,0,0,0-.19,1.45,8.83,8.83,0,0,0,.79,4,9.84,9.84,0,0,0,4.26,4.61,10.07,10.07,0,0,0,7.52,1,2.58,2.58,0,0,0,.58.25,4.83,4.83,0,0,0,1.87.17,6.64,6.64,0,0,0,3-1.09,7.93,7.93,0,0,0,2.92-3.49,1.85,1.85,0,0,1-.05.8,5.71,5.71,0,0,1-1.31,2.47,9.38,9.38,0,0,1-1.88,1.65,9.93,9.93,0,0,1-3.22,1.4,12.59,12.59,0,0,1-4.57.2,13,13,0,0,1-5.37-2.08,5.45,5.45,0,0,0,.58.37,12.52,12.52,0,0,0,2.32,1,13.13,13.13,0,0,0,5,.52,12.61,12.61,0,0,0,7.28-3,5.49,5.49,0,0,1-1.06,1.41,7.17,7.17,0,0,1-4,2s.48-.16,1.37-.56a15.64,15.64,0,0,0,5.54-4.32,13.72,13.72,0,0,0,1.8-3,13,13,0,0,0,.81-8.07,16.32,16.32,0,0,1,.28,2,4.36,4.36,0,0,0,0-.91,11.5,11.5,0,0,0-.67-3A12.77,12.77,0,0,0,160.65,57a14.28,14.28,0,0,0-4-3.2,12.22,12.22,0,0,0-4.93-1.45,16.42,16.42,0,0,0-4.48.26c-1.29.25-2.29.55-3,.65a11.65,11.65,0,0,0-1.74,1.22,12.37,12.37,0,0,0-3,3.62,10.13,10.13,0,0,0-1.28,4.49c0,1.3.28,2.13.64,2.16" transform="translate(-49.8 -52.24)"/><path class="cls-4" d="M158.4,72.58s-.06.18-.21.51a7.66,7.66,0,0,1-.84,1.37,9.14,9.14,0,0,1-5.21,3.33,11,11,0,0,1-4.57.15,11.71,11.71,0,0,1-5-2.15A10.93,10.93,0,0,1,139,71a10,10,0,0,1-.33-6.27" transform="translate(-49.8 -52.24)"/><path class="cls-4" d="M163,67.41a6.2,6.2,0,0,1,0,.69,9.94,9.94,0,0,1-.21,2A11,11,0,0,1,161.72,73a12.35,12.35,0,0,1-2.56,3.23,12.78,12.78,0,0,1-4.27,2.56,13.14,13.14,0,0,1-5.49.67,12.5,12.5,0,0,1-9.53-5.71" transform="translate(-49.8 -52.24)"/></g><path class="cls-1" d="M202.1,134.5a36.39,36.39,0,0,1-12.3-2,28.5,28.5,0,0,1-9.7-5.7,25.87,25.87,0,0,1-6.4-8.9,28.54,28.54,0,0,1-2.3-11.7,28.13,28.13,0,0,1,2.35-11.65,25.78,25.78,0,0,1,6.55-9,29.58,29.58,0,0,1,9.85-5.7,36.52,36.52,0,0,1,12.25-2,33.76,33.76,0,0,1,5.45.45,39,39,0,0,1,5.3,1.25,37.75,37.75,0,0,1,4.7,1.8,18.18,18.18,0,0,1,3.65,2.2L210,100.2a7.79,7.79,0,0,0-3.15-2.08,10.81,10.81,0,0,0-3.75-.72,9.94,9.94,0,0,0-3.3.55,8,8,0,0,0-2.85,1.7,9.1,9.1,0,0,0-2,2.8,9.66,9.66,0,0,0,0,7.7,7.92,7.92,0,0,0,2,2.7,8.86,8.86,0,0,0,2.85,1.6,9.94,9.94,0,0,0,3.3.55,10.56,10.56,0,0,0,3.9-.75,8.28,8.28,0,0,0,3.1-2l11.6,16.13a28.72,28.72,0,0,1-8.55,4.38A34.12,34.12,0,0,1,202.1,134.5Z" transform="translate(-49.8 -52.24)"/><g class="cls-2"><path class="cls-3" d="M202,134.93l-2.1-.34c-1.38-.23-3.4-.57-6-1.23,0,0-.55-.17-1.59-.56a34,34,0,0,1-4.43-2.05,27.92,27.92,0,0,1-6.24-4.6,25,25,0,0,1-5.7-8.5,27.53,27.53,0,0,1-1.79-12.49,27.1,27.1,0,0,1,1.4-7,24.17,24.17,0,0,1,3.6-6.64,26.46,26.46,0,0,1,13.94-9,35.69,35.69,0,0,1,9.4-1.29,34.86,34.86,0,0,1,9.9,1.43l.91.26,1.08.38,1.31.52.83.36.36.17,0,0a1,1,0,0,1,.27.12c.07.06-.05.18-.09.31q-1.92,2.9-4.44,6.73l-3.4,5.32a2.31,2.31,0,0,0-.61-.3,13.33,13.33,0,0,0-2.82-.89,12.12,12.12,0,0,0-2.94-.23,12,12,0,0,0-2.74.46,9.92,9.92,0,0,0-4.19,2.37,9.25,9.25,0,0,0-1.82,2.44l-.2.47a11,11,0,0,0-.48,1.43,11.17,11.17,0,0,0,.09,5.57,8.76,8.76,0,0,0,1.84,3.49,8.39,8.39,0,0,0,3.78,2.52,10.27,10.27,0,0,0,5.11.36,10.52,10.52,0,0,0,2.65-.86c.23-.11.41-.2.66-.34a5.38,5.38,0,0,0,.77-.54,15.21,15.21,0,0,0,1.52-1.41l.19-.07.1,0,.09.11.36.48.74,1,1.48,2,2.61,3.52,2.73,3.77,3,4.27c.31.43.59.86.87,1.29l.43.64.1.16c0,.05.12.11,0,.15l-.32.23a25.79,25.79,0,0,1-2.68,1.76c-.24.14-.47.27-.72.39l-.62.31c-.41.2-.83.39-1.25.57-.85.36-1.72.69-2.61,1a31.94,31.94,0,0,1-11.5,1.63,25.47,25.47,0,0,0,2.94,0,30.66,30.66,0,0,0,8.18-1.46c.86-.28,1.75-.6,2.67-1,.46-.19.93-.4,1.4-.62l.71-.35c.26-.14.57-.3.84-.46.58-.33,1.14-.69,1.7-1.08l.84-.6.43-.32a.39.39,0,0,0,.1-.08l-.08-.1-.14-.22c-.39-.58-.76-1.17-1.2-1.78l-1.25-1.76c-1.43-2-3-4.09-4.59-6.28L213,115l-1.49-2-.79-1c-.26-.28-.5-.89-.8-.53a13.63,13.63,0,0,1-1.66,1.5,8.21,8.21,0,0,1-1.62.91,10.65,10.65,0,0,1-3.47.85,9.66,9.66,0,0,1-7.17-2.36l-.21-.37a10.34,10.34,0,0,1-.56-1.12,9.65,9.65,0,0,1-.77-4.83,9,9,0,0,1,.92-3.52,9.05,9.05,0,0,1,2.91-3.39,9.76,9.76,0,0,1,5.23-1.55,11.67,11.67,0,0,1,3.19.44,8,8,0,0,1,2.92,1.41l.21.17s0,0,0,0l0-.07.08-.16.34-.61s0,.11-.12.36l-.19.48-.06.16s0,.15-.08.1l-.23-.14c-.27-.16-.68-.32-1.32-.62a6.23,6.23,0,0,0-1.1-.4,11.37,11.37,0,0,0-1.25-.26,10.1,10.1,0,0,0-3.09-.08,9.08,9.08,0,0,0-3.62,1.26,7.53,7.53,0,0,0-2.83,3.54,6.8,6.8,0,0,0-.45,2.53,8,8,0,0,0,.44,2.85c.09.22.18.42.29.63a6.88,6.88,0,0,0,1.37,1.79,7,7,0,0,0,2.94,1.49,8.35,8.35,0,0,0,3.73.06,8.86,8.86,0,0,0,1.9-.64,5.32,5.32,0,0,0,.79-.46,8,8,0,0,0,.9-.8c.61-.59,1.26-1.24,1.85-1.84.13.12.24.19.36.29l.37.53.75,1.06c.51.71,1,1.42,1.53,2.15l2.09,3-.78-1.11-1.36-1.9L211.86,111l-.78-1.08-.42-.58c-.14-.21-.26-.2-.42-.36l-1.42,1.44a8.74,8.74,0,0,1-1.61,1.4,6.56,6.56,0,0,1-.6.33l-.5.22a8.65,8.65,0,0,1-1.12.36,8.23,8.23,0,0,1-5.76-.59,6.05,6.05,0,0,1-2.58-2.45,5.85,5.85,0,0,1-.73-1.88,9.63,9.63,0,0,1-.18-2.32,6.73,6.73,0,0,1,.5-2.31,7.73,7.73,0,0,1,1.39-2.22,6.83,6.83,0,0,1,2.21-1.63,9,9,0,0,1,2.95-.74,10.3,10.3,0,0,0-3.33,1.51,7.43,7.43,0,0,0-2.27,2.89c-.08.16-.15.33-.22.5a3.53,3.53,0,0,0-.15.46,7.8,7.8,0,0,0-.21,1,10.07,10.07,0,0,0,0,2.45,7,7,0,0,1-.18-1.11,6.54,6.54,0,0,1,4.39-6.94,8.22,8.22,0,0,1,3.85-.36,11.05,11.05,0,0,1,2.19.57l.26.11.42.22a6.36,6.36,0,0,1,.81.61c.54.46,1.09,1,1.59,1.47a1.11,1.11,0,0,1,.29-.07c.05,0,.09-.09.14-.16l.14-.21.56-.87,1.15-1.77,1.91-3,4-6.16,2.25-3.45c.45-.68.9-1.37,1.31-2l.31-.51c.08-.16.33-.35,0-.46s-.68-.49-1-.72a18.14,18.14,0,0,0-2.2-1.25c-.75-.37-1.41-.64-2.14-.92a39.43,39.43,0,0,0-4.5-1.45,41.4,41.4,0,0,1,5.41,1.81,21,21,0,0,0-2.44-1,39,39,0,0,0-8.59-2,38.26,38.26,0,0,0-12.84.72A31.94,31.94,0,0,0,180.4,85a27.24,27.24,0,0,0-8.27,12.13,34.31,34.31,0,0,0-1.59,12.48,41.71,41.71,0,0,0,1.29,8.29s.21.55.65,1.48a26.87,26.87,0,0,0,6,8.27,27.74,27.74,0,0,0,5.57,4.05,31.12,31.12,0,0,0,12.15,3.71c3.48.29,5.8-.07,5.9-.43" transform="translate(-49.8 -52.24)"/><path class="cls-4" d="M206.73,96.84l-.77-.11a12.66,12.66,0,0,0-2.25,0,11,11,0,0,0-3.4.83,8.48,8.48,0,0,0-5.29,7.61,10,10,0,0,0,.37,2.87,7,7,0,0,0,1.36,2.57,7.49,7.49,0,0,0,5.46,2.54,9,9,0,0,0,3.31-.49,7.85,7.85,0,0,0,.8-.32l.39-.19.18-.1c.09,0,.25-.14.37-.21a8.79,8.79,0,0,0,1.48-1.32l1.5-1.56c.36.17.71.77,1.08,1.25l1.11,1.5,1.93,2.62,2.78,3.84,2.83,4,1.43,2.08c.73,1.07,1.64,2.29,2.27,3.39l.52.84c.06.14.23.29.2.41l-.43.31-1.68,1.2c-.56.38-1.14.76-1.75,1.1-.31.18-.61.35-.93.51l-.66.32a33.9,33.9,0,0,1-5.33,1.92,31.8,31.8,0,0,1-11.51,1" transform="translate(-49.8 -52.24)"/><path class="cls-4" d="M219.78,86.24l-2.33,4.19-2.73,4.81-1.71,3-1.4,2.28-.77,1.24-.4.64c-.07.14-.13.12-.19.16a2.53,2.53,0,0,0-.22.13c-.41-.39-.87-.82-1.33-1.23a7,7,0,0,0-1.43-1.12l-.19-.1-.11-.06-.06,0-.21-.08-.44-.13c-.3-.09-.63-.17-.95-.24a8.1,8.1,0,0,0-3.79.14,6,6,0,0,0-3.09,1.93,6.94,6.94,0,0,0-1,1.62,5.27,5.27,0,0,0-.46,1.75,8.7,8.7,0,0,0,.07,2,4.86,4.86,0,0,0,.55,1.7,5.14,5.14,0,0,0,1.09,1.44,5.88,5.88,0,0,0,1.53,1,7.22,7.22,0,0,0,3.92.47,7.72,7.72,0,0,0,2-.58l.23-.11.14-.07.33-.19a5.36,5.36,0,0,0,1.2-1l2.46-2.57,4.63,6.52,2.51,3.69,2.45,3.68,1.18,1.85.59.92,1,1.51" transform="translate(-49.8 -52.24)"/></g><path class="cls-1" d="M249.2,109.6v22.9H226.1V56.9h23.1V100h.3L262,79.9h26.8l-17,23.7,16.9,28.9H261.8l-12.3-22.9Z" transform="translate(-49.8 -52.24)"/><g class="cls-2"><path class="cls-3" d="M249.63,109.7s-.52,4.66-.74,13.25l-.16,2.41-.17,3-.11,1.69-.12,1.61-1.62-.12-.81-.06-1.21-.06-5.35-.25-6.21-.27-3.41-.14-.58,0-.4,0-.75-.07.06-.77,0-.37,0-.17V129l.12-3.68q.12-3.77.25-7.86c.13-5.46.28-11.37.44-17.69s.22-13.07.34-20.22q.07-9.15.17-19.29h16.43q.12,10.76.25,22.38l0,1.64s0,3.68.05,10.93c0,1.25,0,2.58,0,4v.27c0,.06,0,.06.05.1l.11.18.22.36.46.75,1,1.62.25.43c0,.06.1,0,.17,0h.22l.17,0,.67-.17.1,0,.14-.1.29-.19.58-.39,1.19-.8.3-.21.16-.11a2.09,2.09,0,0,0,.19-.29l.8-1.32,1.65-2.69q2.35-3.89,5.05-8.32l1.14-1.93,1.32-2.22.77-1.32.19-.37.34,0h.51l.79,0,3.33-.08,7.11-.2,7-.2,2.95-.21c-.57,1-1.14,1.93-1.45,2.52l0,0a1.79,1.79,0,0,1-.12.2l-.56,1L281,89.16c-2,3.31-5.08,8.21-9.13,14.44,2.37,3.66,5.07,7.92,8,12.66l4.61,7.52L287,128q1.56,2.63,3.19,5.36l-7.78,0-6.58,0L269,133.3l-7.57-.11c-.95-1.86-1.92-3.74-2.89-5.66s-1.82-3.61-2.75-5.46q-2.75-5.56-5.65-11.46l2.84,5.93,3.45,7,2.22,4.39c.86,1.67,1.77,3.45,2.74,5.32l6.4.08,6.49,0h7l8.88-.06q-2.31-3.84-4.75-7.9l-4.31-7-4.56-7.26-4.84-7.58L274,100s1.35-1.42,3.92-4.6c1.29-1.59,2.89-3.63,4.77-6.15l1.47-2,1.62-2.22c1.26-1.76,2.61-3.66,4-5.64l-5.65.11-5.54.19q-5.61.23-12.18.64a35.89,35.89,0,0,1,4.41-.67c1.67-.19,3.91-.41,6.86-.63l2.35-.16,2.72-.16c2.52-.11,5.49-.21,9-.31L283,91.27l-4.39,6.39-4.22,6.06,1,1.63,1.76,3,3.7,6.31q4.2,7.28,9.05,15.67l-4-6.84c-1.17-2-2.72-4.6-4.76-8-1-1.71-2.16-3.62-3.44-5.74l-2-3.36-1.08-1.8-.52-.83,17.43-25.18L281,78.71l.53-.06c.38,0,.75-.1,1.82-.16,1.95-.14,5-.31,9.18-.48l-2.92,4.45-3.3,4.91c-1.58,2.38-3.37,5-5.34,7.73,0,0,.75-1.16,2.3-3.51l2.92-4.41c1.77-2.6,3.85-5.63,6.24-9.12l-31,.76L251.8,95.05l-1.21,2-.31.53-.16.26L250,98a.33.33,0,0,1-.14,0c-.14,0-.12-.06-.12-.16V97l-.09-4.76q-.07-5.73-.16-11.92c.06,5.22.1,8,.11,8.93,0,.39,0,.35,0-.06V86.61c0-5.18,0-16.42-.08-30.07l-23.83,0c0,6.8-.08,13.69-.11,20.34s-.16,12.83-.24,18.58c-.2,11.5-.52,20.8-1,25.36,0,0,0,5.54,0,13.43l12.8,0,13.61-.11c0-2,0-4.05-.07-6l-.08-4.19c-.06-2.69-.14-5.15-.23-7.24-.18-4.19-.42-6.9-.74-7" transform="translate(-49.8 -52.24)"/><path class="cls-4" d="M275,81.08l3.56-.36,4.26-.38c1.51-.15,3.48-.31,6.05-.47-.8,1.34-1.82,3-3.1,5l-3.7,5.88-4.2,6.55-2.3,3.53-1.2,1.82-.61,1,.54.78.93,1.47,2.07,3.3,4.28,6.93,4.46,7.38q3.23,5.48,6.61,11.21l-10.4,0-6.64-.07-14.92-.31-1.93-3.8c-.46-.95-.93-1.9-1.4-2.85l-2.82-5.81q-2.82-5.87-5.65-12l.62.37-.3,0" transform="translate(-49.8 -52.24)"/><path class="cls-4" d="M250.63,98l2.86-5.3,1.26-2.37,1.78-3.25,2.05-3.73c.36-.66.74-1.33,1.12-2,.23-.41.47-.82.7-1.24l.87-1.51L274.42,78l7-.28.9,0,1.47,0,3.14-.06,6.62-.13-6.63,9.61q-2,2.94-4,6l-4.2,6.12-2.14,3.11-1,1.39,0,.09.08.08,1,1.72,2.13,3.57,4.25,7.22,11.07,19.22-7.5-.08-3.64,0-1.91-.05-7.58-.26" transform="translate(-49.8 -52.24)"/></g></svg>