<svg id="Layer_1" data-name="Layer 1" xmlns="http://www.w3.org/2000/svg" viewBox="0 0 246.33 87.69"><defs><style>.cls-1{fill:#fff;}.cls-2{fill:none;}.cls-3{fill:#231f20;}</style></defs><path class="cls-1" d="M81.4,134.5a36.39,36.39,0,0,1-12.3-2,28.6,28.6,0,0,1-9.7-5.7,26,26,0,0,1-6.4-8.9,28.71,28.71,0,0,1-2.3-11.7,28.13,28.13,0,0,1,2.35-11.65,25.91,25.91,0,0,1,6.55-9,29.58,29.58,0,0,1,9.85-5.7,36.56,36.56,0,0,1,12.25-2,33.67,33.67,0,0,1,5.45.45,39,39,0,0,1,5.3,1.25,37.15,37.15,0,0,1,4.7,1.8,18.18,18.18,0,0,1,3.65,2.2L89.3,100.2a7.79,7.79,0,0,0-3.15-2.08,10.81,10.81,0,0,0-3.75-.72,10,10,0,0,0-3.3.55,8,8,0,0,0-2.85,1.7,9.26,9.26,0,0,0-2,2.8,9.66,9.66,0,0,0,0,7.7,8.05,8.05,0,0,0,2,2.7,8.86,8.86,0,0,0,2.85,1.6,10,10,0,0,0,3.3.55,10.56,10.56,0,0,0,3.9-.75,8.2,8.2,0,0,0,3.1-2L101,128.33a28.72,28.72,0,0,1-8.55,4.38A34.08,34.08,0,0,1,81.4,134.5Z" transform="translate(-47.76 -49.97)"/><path class="cls-2" d="M81.4,134.5a36.39,36.39,0,0,1-12.3-2,28.6,28.6,0,0,1-9.7-5.7,26,26,0,0,1-6.4-8.9,28.71,28.71,0,0,1-2.3-11.7,28.13,28.13,0,0,1,2.35-11.65,25.91,25.91,0,0,1,6.55-9,29.58,29.58,0,0,1,9.85-5.7,36.56,36.56,0,0,1,12.25-2,33.67,33.67,0,0,1,5.45.45,39,39,0,0,1,5.3,1.25,37.15,37.15,0,0,1,4.7,1.8,18.18,18.18,0,0,1,3.65,2.2L89.3,100.2a7.79,7.79,0,0,0-3.15-2.08,10.81,10.81,0,0,0-3.75-.72,10,10,0,0,0-3.3.55,8,8,0,0,0-2.85,1.7,9.26,9.26,0,0,0-2,2.8,9.66,9.66,0,0,0,0,7.7,8.05,8.05,0,0,0,2,2.7,8.86,8.86,0,0,0,2.85,1.6,10,10,0,0,0,3.3.55,10.56,10.56,0,0,0,3.9-.75,8.2,8.2,0,0,0,3.1-2L101,128.33a28.72,28.72,0,0,1-8.55,4.38A34.08,34.08,0,0,1,81.4,134.5Z" transform="translate(-47.76 -49.97)"/><path class="cls-3" d="M53.51,104.13l.1-.83a37.25,37.25,0,0,0,.15,8.3,50.87,50.87,0,0,1,.77-9.33c.49-3,1.13-5.6,1.34-8.15.59,0,1.66-1.16,2.7-2.21a14.68,14.68,0,0,0,2-2.15A16.26,16.26,0,0,1,62.83,87a17.94,17.94,0,0,0-1.69,1.81A17.94,17.94,0,0,1,62.83,87a22.65,22.65,0,0,1,10.76-5.56,31.4,31.4,0,0,1,13.06,0,39,39,0,0,1,4.85,1.31c1,.33,2,.72,3,1.17l.75.35a.71.71,0,0,1,.16.08l0,0a1.57,1.57,0,0,1,.19.15,1,1,0,0,1,.14.15c0,.06-.11.13-.16.18l-.15.13,0,0h0l0,0-.06.09-.5.68c-1.33,1.8-2.5,3.36-3.35,4.45l-1.45,1.91,1.68-2.09q-1.26,2.19-2.42,4.21l-.29.5c-.1.17-.22.37-.19.36l-.06.23c0,.17-.12.36-.2.57.12.08.17.27.53.11l-.34.33c0,.11,0,.22-.07.34s0,.06-.07.06l-.09,0c-.21-.09-.54-.25-.93-.38L87,96.15,86.3,96a9.43,9.43,0,0,0-1.16-.23c.42-.13-.92-.55-2.22-.63l.49.19A11.13,11.13,0,0,0,76.16,97a10.66,10.66,0,0,0-2.72,2.63,11.58,11.58,0,0,0-1.61,3.07,9.79,9.79,0,0,1-.49,1.28,12.77,12.77,0,0,0,.08,4c-.18-.14-.13.72,0,1.4s.26,1.15-.15.16a13,13,0,0,0,2.58,4.14,8.67,8.67,0,0,0,4,2.41,12,12,0,0,0,6.5.7,12.74,12.74,0,0,0,3.16-1,4.17,4.17,0,0,0,.4-.21,2,2,0,0,0,.31-.2,3.83,3.83,0,0,0,.59-.49l.18-.2s.1.12.15.17l.31.39.66.81L92.29,119c1.59,2,3.19,4.05,4.8,6l0-.25c.24.29.52.63.72.85l.61.64c.42.44.87.92,1.35,1.45l.36.41c0,.12-.19.22-.29.33a8.91,8.91,0,0,1-.78.64,12.44,12.44,0,0,1-2,1.15c-2.13,1.6-5.75,3-6.65,3.88-1.53.44-2.61.73-3.69,1a24.86,24.86,0,0,1-3.76.67c.42.14-.35.27-1,.37s-1.22.17-.48.29c2.15.41,2.25,0,4.1.21l-.07-.1a34,34,0,0,0,6.39-.93,37.09,37.09,0,0,0,6.14-2.1c.37-.16,1.34-.63,2.05-1a25.19,25.19,0,0,0,2.18-1.38l2.06-1.49.53-.39.13-.09.06,0s0,0,0-.06l-.16-.27-.63-1.06a51.88,51.88,0,0,0-2.88-4.37l-1.81-2.62c-1.33-1.67-2.64-3.44-4-5.25l-2.4-3.36-1.75-2.44a15.07,15.07,0,0,0-1.72-2.22c-.9.93-1.89,1.94-2.77,2.82a4.29,4.29,0,0,1-1.35,1,6.19,6.19,0,0,1-.61.26,7.7,7.7,0,0,1-3.23.51,7,7,0,0,1-3.07-.91c-.21-.13-.43-.28-.63-.43a5.66,5.66,0,0,1-.52-.47,6,6,0,0,1-.88-1.22,6.32,6.32,0,0,1-.71-2.82,3.13,3.13,0,0,1,.7-2.16,5.92,5.92,0,0,1,.55-1.15,6.06,6.06,0,0,1,.83-1.06,5.38,5.38,0,0,1,2.36-1.39,7.46,7.46,0,0,1,3-.25,9.21,9.21,0,0,1,1.57.34l.38.13.18.07.09,0,.16.07a4.64,4.64,0,0,1,1.43,1.07l-.37-.37c.9.85,1.83,1.82,2.65,2.71.14-.12.25-.2.36-.28l.16-.1.18-.24.7-1,1.43-1.92,1.46-2,.48-.67.45-.66c-.08,0,.16-.4.24-.6.31-.08,2.48-3.59,4.66-7.17l.88-1.43,1.28-2a20.51,20.51,0,0,0,1-1.81l.44-.82.21-.4,0-.09s-.06-.05-.08-.08l-.19-.13c-1-.73-1.81-1.29-2.46-1.72s-1.11-.68-1.25-.79l-1.22-.58L97,79.13l-1.07-.5c-.72-.32-1.44-.63-2.16-.92a43.05,43.05,0,0,0-4.43-1.54A27.94,27.94,0,0,0,80.56,75a26.37,26.37,0,0,0-3.44.82c-1-.07-1.1.3-2.24.43-3-.34-4.66.58-3.1.45a43.31,43.31,0,0,0-6.55,2.44,29.24,29.24,0,0,0-2.54,1.6,3.53,3.53,0,0,1-1.63.73c-1.73,1.39-1.34.81-3.18,2.25a9.06,9.06,0,0,0-2.22,2.36c-.89,1.19-1.62,2.49-1.84,2.74l.19-.34c-1.58,2.16-2.95,3.47-4,6a28.64,28.64,0,0,0-2.24,11.08,35.19,35.19,0,0,0,1.48,10.77c.3,0-.51-1.44-.12-1.63a29.15,29.15,0,0,0,5.05,11.11c.4.64.9,1.43,1.06,1.75.84,1,.65.47,1.32,1.18l-.1.3c1.21.8,1.36,1.64,2.52,2.38.13,0,.53.24.92.52-.15.27,1.24.81,1,1h0a7.43,7.43,0,0,1,.71.48c.26.1,1.62.63,3,1a25.92,25.92,0,0,0,3,.7l.22.13c.7.24,1.08.13.68-.06l.86.3h-.1l.86.28c.15.07.29.26,0,.31a7,7,0,0,1,1.58.31,23.66,23.66,0,0,1-4.22-2.09c.59.12,1.57.63,2.21.79a18.27,18.27,0,0,0,3.41,1.38c.28,0,.52-.25,1.11,0,.27.28.7.1,1.19.34a6.74,6.74,0,0,1-1.78-.23c0,.29,1.43.44,1.9.57.23-.05,1.39.18,2.13.16-.34.23.58.21,1,.37s.81,0,.62-.13c.17-.27-2-.29-1.25-.54a5.19,5.19,0,0,0,1.65.17c0-.16-.35-.13,0-.27.58.06,1.18-.12,1.51,0a2.1,2.1,0,0,1-.51,0c.37,0-.64.26-1.64.44s-2,.32-1.51.32a9.57,9.57,0,0,1,2-.39,7.24,7.24,0,0,0,1.79-.38c-.45-.08.32-.27-.14-.33l-.52.18c-.64-.06-.89-.35-.67-.45.53,0-.22.28-1,.48s-1.62.35-1.15.31l-.37-.11a4.77,4.77,0,0,1,1.84.1c0-.15.54-.18,1-.23l.16,0c.45-.07,1.07,0,.78-.23-2.59,0,1.7-1.54-.78-1.65,1,.35-.35.35-1.44.33a3.27,3.27,0,0,0-1.34-.47c-.67,0-.4.09-.54.16-.37-.11-1.07-.25-1-.42-.55.14-.81-.25-1.44-.27s0,.09-.38.13c-.82-.17-2-.45-2.58-.65-.21-.23-.87-.71-.26-.82,1.18.35-.57.29.7.56-.45-.5,1.13.17,1.43-.08a6.06,6.06,0,0,0-1.85-.56L72,133a6.57,6.57,0,0,1-2.36-.78c.19-.08,0-.26.39-.15l-.78-.3c-.11,0-.23,0,0,.12a2,2,0,0,1-1-.42,21.87,21.87,0,0,0-2.13-.69,13.14,13.14,0,0,1-2-.73c-.52-.31-.54-.56-1.11-.76a13.9,13.9,0,0,0,2.49,1.22,15.19,15.19,0,0,0,2.09.71c-.2-.17-1.83-.67-3.37-1.39A10.66,10.66,0,0,1,61.15,128c-.36-.26-.8-.58-.81-.41-.54-.54.35-.06,0-.51,0,0,0,.08-.14,0l-.27-.48c-1-.6-2-2-3-2.79a6.42,6.42,0,0,1,1.43.78l0,.15c.1.06.59.48.67.36a8.48,8.48,0,0,0-1.48-1.52c-.06-.13-.13-.29-.17-.4a.1.1,0,0,1,0,0c-.08-.25,0-.24.05-.21l0,0c0-.59-1.91-2.13-2.35-3.44-.24-.31-.08,0-.38-.39-.48-1.29-.75-2.19-1.13-3.54-.32-.36-.4-.38-.4.2-.1-.34-.19-.69-.28-1,.72.79-.1-2,.65-1.13a4.37,4.37,0,0,0-.29-1.48c-.13,0-.34-.08-.48-.82,0-1,0-.79,0-1.65.14-.22.23.08.35,0-.33-1.28.23-1.16.14-2.37-.08-.77-.07-2.28-.34-2.33C53.08,104,53.29,104,53.51,104.13Z" transform="translate(-47.76 -49.97)"/><path class="cls-1" d="M105.4,56.9H129v75.6H105.4Z" transform="translate(-47.76 -49.97)"/><path class="cls-2" d="M105.4,56.9H129v75.6H105.4Z" transform="translate(-47.76 -49.97)"/><path class="cls-3" d="M126.26,77.89l0,.82c0-2.66.08-5.46.19-8.22-.94,6-1.77,13.09.23,17.74-1.07.5-1.56,6.33-1.3,6.45.2,1.21.36,2.43.49,3.67-.08-.85-.17-1.7-.27-2.54.1.84.19,1.69.27,2.54.82,7.83.46,16.34,0,25.15,0,1-.08,2.31-.13,3.85l0,1.19,0,.21-.06.38L125,129l-3.92-.12c-2.51-.08-4.74-.16-6.23-.25l-2.18-.11,2.43.19-4.39.41-1,.09-.26,0c-.09,0-.05,0-.08,0l-.11,0a2.71,2.71,0,0,1-.5.15c0,.16-.08.3.25.51l-.43-.1a2.4,2.4,0,0,1-.81.3c-.15-.42-.18-1.18-.31-1.64.23.3.28-.77.31-1.71l-.15.38c.09-3.56-.09-7.7-.07-10.88a2.74,2.74,0,0,1,.17-1l-.18-3c.31.24.27-2.53.47-1.07-.37-2.28-.14-4.6-.52-6.78,0-7.78-.28-16-.8-24.1l-.12.2c-.2-2.82-.81-5.3-.61-8.72-.41-2.44-.63-5.92-1.27-6.89-.09-2.82-.41-3.95-.58-6.71-.32.71-.39-2.69-.63-1.33-.45,1.84-.07,1.94-.43,3.49l.11,0c-.48,7.26-.76,14.54-.9,21.91.27,4.91,0,10.24.13,15.35.11,5.5.32,11.46.58,16.18a10.63,10.63,0,0,1-.32,2.89c.07,2.17.08,4.64.09,7.17l0,3.83.09,5.66v1.74c1.62,0,3.11.09,4.68.14l2.18.07c.49,0,1,0,1.51,0,0-.09.38-.1.57-.15.22.22,4,0,7.76-.25l5.3-.33,2.7-.08a11.72,11.72,0,0,1,1.4,0l1.19-.05.88,0c0-1.89.14-3.82.25-5.85l.32-3.89c.21-2.53.38-5,.35-7.19-.2-1-.38-2.12-.6-3,.18-.82-.17-1-.13-1.95.85-2.49.5-4,.2-2.67-.12-2,0-4.1-.07-5.92l-.2-2.53a2.3,2.3,0,0,1,.26-1.5,16.35,16.35,0,0,1,.17-3.24c.3-.47-.47-4.86-.38-5.41l0,.31c.05-2.24.63-3.73.65-5.92.22-6.09,0-12.75.1-18.39-.31-.06.07,1.24-.34,1.31,0-1.66.14-3.34.25-5l.15-2.52,0-.32v-.55l0-1.12,0-2.26c.09-1.12.24-2.6.34-3.22l0-.25c-1.65-.08-1.17.16-2.52.13v-.29a10.84,10.84,0,0,1-2.67-.05c-.39,0-.77-.1-1.2-.13l-.67,0H125l-.19,0c-.06.11-.46.13-.84.12,0-.3-1.18,0-1.13-.25v0a4.17,4.17,0,0,1-.68,0c-.44.11-4.56.92-5,1.05l-.21-.05c-.61,0-.88.23-.52.28h-.76l.09,0-.76,0c-.14,0-.29-.16-.08-.3a3.81,3.81,0,0,1-1.34.11c1.19.19,2.68.45,3.92.75a19,19,0,0,1-2,0,28.61,28.61,0,0,0-3.09-.5c-.23,0-.39.35-.92.21-.26-.23-.6,0-1-.16a5.88,5.88,0,0,1,1.51-.06c-.08-.27-1.24-.18-1.65-.26-.19.09-1.17,0-1.8.07.27-.25-.5-.16-.87-.3s-.68.07-.51.16c-.14.29,1.66.17,1.08.47a3.94,3.94,0,0,0-1.41-.08c0,.16.3.12,0,.27-.49,0-1,.15-1.29,0a1.25,1.25,0,0,1,.44,0c-.64,0,3.46-1,2.63-.92.22.14-3.64.92-3.21.93s-.28.27.12.33l.45-.19c.55.06.78.33.58.43-.92,0,2.63-1,1.84-.89l.32.07a3.25,3.25,0,0,1-1.58,0c0,.15-.45.2-.82.26l-.14,0c-.38.08-.92,0-.67.24,2.27,0-1.49,1.55.7,1.64-.92-.33.31-.34,1.28-.38a2.49,2.49,0,0,0,1.22.37c.6,0,.35-.13.47-.21.33.07,1,.14.88.32.47-.22.75.13,1.32.06s0-.09.31-.2c.75,0,1.79.06,2.38.1.23.16.93.46.42.72-1.13,0,.43-.42-.74-.37.5.38-1,.11-1.25.39a4.35,4.35,0,0,0,1.76.13l-.13,0a7,7,0,0,1,2.28.07c-.14.14.13.24-.29.27l.77,0c.1,0,.2-.08,0-.11a1.76,1.76,0,0,1,1,0c.09.14,4.1-.59,4-.5.56,0,.69.2,1.23.06.06-.11-5.3.48-4.56.44.47.15,6.28-.71,6.61-.44.39,0,.87,0,.81-.18.65.07-.26.27.16.4,0,0,0-.07.13-.06l.35.18a9.73,9.73,0,0,1,2-.09,3.82,3.82,0,0,0,.14,1.32c-.16-.21-.43-.34-.57-.76l.08-.18s0,0,0,0c-.16,0-.61.1-.7.23a1.92,1.92,0,0,0,.41,0,2.73,2.73,0,0,0,.13.9c0,.13-.08.26-.12.36l.06,0c-.09.22-.1.21-.16.18l0,0c-.21.26-.14.64-.05,1.16,0,.2.09.65.12,1.05a4.88,4.88,0,0,1,0,1.09c.06.37.07,0,.15.49-.17,1.29-.3,2.18-.39,3.52.18.43.25.47.44,0l-.06,1c-.48-.92-.46,1.9-.94.88A3.65,3.65,0,0,0,127,70c.12.06.31.14.31.86-.16,1-.1.76-.26,1.58-.15.2-.21-.1-.34-.07.2,1.27-.34,1.11-.31,2.31,0,.75.06,2.24.34,2.28C126.69,78,126.48,78,126.26,77.89Z" transform="translate(-47.76 -49.97)"/><path class="cls-1" d="M139.3,64.7a11,11,0,0,1,.95-4.55,11.85,11.85,0,0,1,2.6-3.75,12.55,12.55,0,0,1,3.85-2.55,11.75,11.75,0,0,1,4.7-1,10.84,10.84,0,0,1,4.5,1,13,13,0,0,1,3.75,2.55,12,12,0,0,1,2.6,3.75,11.18,11.18,0,0,1,.95,4.55,11.35,11.35,0,0,1-3.55,8.35,12.86,12.86,0,0,1-3.75,2.45,11.3,11.3,0,0,1-4.5.9,12.26,12.26,0,0,1-4.7-.9,12.47,12.47,0,0,1-3.85-2.45,11.35,11.35,0,0,1-3.55-8.35Zm.4,15.2h23.1v52.6H139.7Z" transform="translate(-47.76 -49.97)"/><path class="cls-2" d="M139.3,64.7a11,11,0,0,1,.95-4.55,11.85,11.85,0,0,1,2.6-3.75,12.55,12.55,0,0,1,3.85-2.55,11.75,11.75,0,0,1,4.7-1,10.84,10.84,0,0,1,4.5,1,13,13,0,0,1,3.75,2.55,12,12,0,0,1,2.6,3.75,11.18,11.18,0,0,1,.95,4.55,11.35,11.35,0,0,1-3.55,8.35,12.86,12.86,0,0,1-3.75,2.45,11.3,11.3,0,0,1-4.5.9,12.26,12.26,0,0,1-4.7-.9,12.47,12.47,0,0,1-3.85-2.45,11.35,11.35,0,0,1-3.55-8.35Zm.4,15.2h23.1v52.6H139.7Z" transform="translate(-47.76 -49.97)"/><path class="cls-3" d="M160.06,90.83l0,.62c0-2,.07-4.17.19-6.27-.94,4.58-1.77,10,.22,13.54-1.06.38-1.55,4.83-1.29,4.92.2.92.36,1.86.49,2.8-.08-.65-.17-1.3-.27-1.94.1.64.19,1.29.27,1.94.82,6,.46,12.47.05,19.19l-.13,2.92a5.52,5.52,0,0,1-.14.58L159,129l-.09,0h-.26l-.38,0-1.47-.06c-1.91-.08-3.61-.16-4.75-.25l-1.66-.11,1.85.19c-2.33.29-4.44.56-6.48.74A4.3,4.3,0,0,0,147,130l-1-.1a6.94,6.94,0,0,1-2.05.4c-.25,0-.31,0-.4.05l-.27,0a3.52,3.52,0,0,0-.49.11c.2-.23-.13-.28-.39-.31v.15l-.45,0c0-.56,0-1.1,0-1.67l0-1.7v-1.69a1.57,1.57,0,0,1,.17-.74l-.18-2.33c.31.18.27-1.93.47-.82-.37-1.74-.14-3.51-.52-5.17-.05-5.94-.28-12.26-.8-18.39l-.12.15c-.2-2.15-.81-4-.61-6.66-.41-1.86-.63-4.51-1.27-5.26-.09-2.15-.41-3-.58-5.12-.32.55-.39-2-.63-1-.45,1.4-.07,1.48-.43,2.67l.11,0c-.48,5.55-.76,11.1-.9,16.72.27,3.75,0,7.82.13,11.72.11,4.2.32,8.74.58,12.34a6.29,6.29,0,0,1-.32,2.21l0,1.62c0,.64,0,1.29,0,2,0,2,0,4,0,6.09l3.66,0,1.79,0,1.53,0h-.18c2-.06,3.47.27,5.41.22,0-.09.29-.1.44-.15.16.22,3,0,5.91-.25l2.14-.18,1-.08,1.31-.07a26,26,0,0,1,3.21,0l.89-.05.68,0c.05-1.43.14-2.88.25-4.41.1-1.78.21-2.47.32-3.49a43,43,0,0,0,.34-5.49c-.19-.76-.37-1.62-.59-2.26.18-.62-.17-.74-.13-1.49.85-1.9.5-3,.2-2-.12-1.57,0-3.13-.07-4.52l-.2-1.94a1.41,1.41,0,0,1,.25-1.13,10.08,10.08,0,0,1,.18-2.48c.3-.36-.47-3.71-.38-4.13l0,.24c.05-1.71.63-2.85.65-4.52.11-2.33.11-4.76.1-7.15l0-3.53c0-1.42,0-2.81,0-4.14-.31,0,.07,1.65-.34,1.75,0-2.15.14-4.37.25-6.74-2-.1-4.22-.21-6.46-.23l-.32,0-.2,0-.35-.09a3.72,3.72,0,0,1-.53-.17c-.82-.12-.48.15-1.08.11l-.08-.29c-.88.23-1.28-.31-2.11-.19,0,.11-.34.13-.64.12,0-.3-.9,0-.86-.25v0a2.37,2.37,0,0,1-.51,0c-.34.11-3.49.92-3.83,1l-.16,0c-.47,0-.67.23-.39.28h-.58l.06,0-.57,0c-.11,0-.23-.16-.07-.3a2.22,2.22,0,0,1-1,.11c.91.19,2,.45,3,.75a11.14,11.14,0,0,1-1.52,0,16.85,16.85,0,0,0-2.35-.5c-.18,0-.3.35-.71.21-.2-.23-.45,0-.79-.16a3.43,3.43,0,0,1,1.15-.06c-.06-.27-.95-.18-1.26-.26-.14.09-.89,0-1.37.07.21-.25-.38-.16-.66-.3s-.53.07-.4.16c-.1.29,1.28.17.83.47-.12-.14-.74-.09-1.08-.08,0,.16.23.12,0,.27-.37,0-.77.15-1,0a.76.76,0,0,1,.34,0c-.49,0,2.64-1,2-.92.17.14-2.78.92-2.45.93s-.21.27.09.33l.34-.19c.43.06.6.33.45.43-.7,0,2-1,1.4-.89l.24.07a1.89,1.89,0,0,1-1.2,0c0,.15-.34.2-.63.26l-.1,0c-.29.08-.71,0-.51.24,1.72,0-1.14,1.55.53,1.64-.7-.33.24-.34,1-.38a1.64,1.64,0,0,0,.93.37c.45,0,.27-.13.35-.21.26.07.74.14.68.32.36-.22.57.13,1,.06s0-.09.24-.2c.57,0,1.37.06,1.82.1.17.16.71.46.32.72-.86,0,.33-.42-.57-.37.39.38-.79.11-.95.39a2.56,2.56,0,0,0,1.34.13l-.09,0a4.12,4.12,0,0,1,1.74.07c-.11.14.09.24-.22.27l.58,0c.08,0,.15-.08,0-.11a1.06,1.06,0,0,1,.77,0c.07.14,3.12-.59,3-.5.42,0,.52.2.94.06a30.33,30.33,0,0,0-3.49.44c.36.15,4.79-.71,5.06-.44.31,0,.69,0,.61-.18.53.07-.15.27.22.4,0,0,0-.07.09-.06l.36.18c.82-.22,2,.06,2.89-.23a3,3,0,0,1-1.08.57l-.1-.08c-.08,0-.54.1-.52.24a3.47,3.47,0,0,0,1.53-.07A1.1,1.1,0,0,1,159,81s0,0,0,0,.11.1.06.16l0,0c.1.21.41.14.85,0a2.91,2.91,0,0,1,1.27-.1c.25-.06.07-.07.4-.15l.16,0c-.14.75-.25,1.25-.33,1.87.18.14.25.16.44-.21l-.06.59c-.24-.19-.36.1-.47.33s-.23.4-.47.21c-.05,0-.09.19-.1.4a2.85,2.85,0,0,0,0,.64c.12,0,.31.11.31.66-.16.76-.1.58-.26,1.21-.15.15-.22-.09-.34-.06.2,1-.34.85-.31,1.77,0,.57.06,1.7.34,1.73C160.49,90.9,160.28,90.9,160.06,90.83Z" transform="translate(-47.76 -49.97)"/><path class="cls-3" d="M149.83,55.77h.24a22.71,22.71,0,0,0-2.33.45c2,.16,3.55.92,5.12-.84a2,2,0,0,0,.64,1.31c.31.32.61.51.68.4a3.44,3.44,0,0,1,1.11,0,4.92,4.92,0,0,0-.76-.09,5.22,5.22,0,0,1,3.81,1.91,6.88,6.88,0,0,1,1.39,3.38,9.3,9.3,0,0,1,0,3.1,5.77,5.77,0,0,1-1.16,2.73l-.35.44a5,5,0,0,0,.46-.46,6,6,0,0,1-.63,2.26,1.39,1.39,0,0,0,.7,0l-.33.23c.11.56-.56,1.17-.78,1.57-.08-.23-.36-.06-.61.08l.18.06a13.81,13.81,0,0,1-3,1.6.37.37,0,0,1-.33-.08,8.3,8.3,0,0,1-.86.38c0-.31-.79-.16-.39-.41-.62.45-1.35.24-2.05.58a14,14,0,0,1-7.27-2.53l0,.13c-.79-.52-1.85-.89-2.26-2.09-.8-.58-1.42-1.75-2.13-2a20.4,20.4,0,0,1-1-2.62c-.32.3-.4-1.1-.64-.55-.44.81-.05.84-.35,1.56l.11,0a12.48,12.48,0,0,0,3.73,9.3,18.75,18.75,0,0,0,6.32,3.35,13.47,13.47,0,0,0,7.37-.34,3.11,3.11,0,0,1,1.39-.05A21.12,21.12,0,0,0,158.84,77a11.79,11.79,0,0,0,2.66-2.17l-.08.06a13.24,13.24,0,0,0,2.28-2.39c-.08,0,0-.2,0-.3.24,0,1-1.57,1.25-3.32s.11-3.43.23-3.62l0-.35a21.85,21.85,0,0,0,.16-3.64A7.7,7.7,0,0,0,164.4,58a6.53,6.53,0,0,0-1.2-.86c-.06-.41-.38-.27-.6-.64,0-1.42-.81-1.69-.61-1.05-.71-.61-1.32-1.26-2-1.74-.33-.18-.67-.34-1-.49a.6.6,0,0,1-.41-.57c-.77-.31-.45-.37-1.18-.85,0-.18-.57-.31-1.16-.39a8.21,8.21,0,0,1-1.27-.14h.15c-.95-.32-1.54-1-2.57-1.13a11.78,11.78,0,0,0-4.34.19,17.72,17.72,0,0,0-3.94,1.46c.12.28.48-.33.69,0A15.36,15.36,0,0,0,140.9,54a4.32,4.32,0,0,1-.79.3c-.45.3-.11.33-.39.58l-.24-.15c-.19.57-.78.44-1,.94.08.09,0,.26-.14.41-.25-.16-.31.5-.52.33h0a.9.9,0,0,1-.22.27c0,.12-.1.73-.14,1.32a12.22,12.22,0,0,0,0,1.3l-.08.07c-.1.28.07.47.18.34l-.14.32v0l-.13.33a.19.19,0,0,1-.29-.06,1,1,0,0,1-.09.64,6.65,6.65,0,0,1,1.3-1.46c0,.25-.29.58-.34.83a4,4,0,0,0-.88,1.22c0,.11.3.25.11.46s-.05.27-.24.44a1.06,1.06,0,0,1,.08-.7c-.28,0-.3.54-.4.71.06.11-.09.56,0,.86-.25-.16-.19.22-.34.38s.05.33.15.26c.27.07.22-.77.5-.47-.15.06-.13.44-.12.64.15,0,.12-.13.26,0,0,.22.14.45,0,.58,0,0,0-.14,0-.2,0,.14-.26-.25-.47-.66s-.39-.83-.37-.62c.07,0,.25.41.45.83s.39.81.39.71.28.12.34,0l-.19-.2c.06-.25.34-.34.44-.25-.05.43-1-1.23-.84-.88l.09-.14c.08.17.13.58,0,.73.15,0,.19.21.24.38l0,.06c.08.18,0,.42.24.31,0-.51.38-.32.78-.16s.81.31.86-.11c-.34.35-.35-.13-.36-.53a.76.76,0,0,0,.41-.45c0-.24-.1-.15-.18-.21.09-.12.19-.36.36-.3-.18-.21.18-.27.15-.49s-.1,0-.17-.16a5.61,5.61,0,0,1,.32-.88c.19,0,.54-.2.73.06-.15.38-.35-.28-.42.16.41-.08,0,.4.26.55a.72.72,0,0,0,.28-.59l-.06,0c0-.21.07-.62.34-.75.1.09.23,0,.21.19l.12-.25s0-.09-.11,0a.27.27,0,0,1,.17-.32c.11,0,.13-1.58.21-1.51.1-.17.31-.1.29-.35a2.33,2.33,0,0,0-.3.9,2.89,2.89,0,0,0-.11.76,5.07,5.07,0,0,0,.33-1.19c.15-.57.37-1.12.52-1.09.08-.13.17-.29,0-.35.22-.16.17.23.39.17,0,0-.07,0,0-.07l.25,0c.08-.45.68-.66.77-1.15a2.06,2.06,0,0,1,0,.76l-.09,0c0,.06-.1.24,0,.33a.73.73,0,0,0,.43-.54h.18l0,0c.12,0,.12,0,.14.08s0,0,0,0c.38.21.51-.81,1-.89.06-.12,0-.06.05-.22.45-.12.77-.17,1.21-.31,0-.22,0-.29-.23-.37l.34-.12c0,.57.77.12.68.71a.44.44,0,0,0,.45-.15c0-.12-.08-.32.13-.4a3,3,0,0,1,.56.06c.11.13,0,.22.09.33.3-.31.42.22.74.1s.62-.22.58-.49C149.79,55.34,149.82,55.54,149.83,55.77Z" transform="translate(-47.76 -49.97)"/><path class="cls-1" d="M202.1,134.5a36.39,36.39,0,0,1-12.3-2,28.5,28.5,0,0,1-9.7-5.7,25.87,25.87,0,0,1-6.4-8.9,28.54,28.54,0,0,1-2.3-11.7,28.13,28.13,0,0,1,2.35-11.65,25.78,25.78,0,0,1,6.55-9,29.58,29.58,0,0,1,9.85-5.7,36.52,36.52,0,0,1,12.25-2,33.76,33.76,0,0,1,5.45.45,39,39,0,0,1,5.3,1.25,37.75,37.75,0,0,1,4.7,1.8,18.18,18.18,0,0,1,3.65,2.2L210,100.2a7.79,7.79,0,0,0-3.15-2.08,10.81,10.81,0,0,0-3.75-.72,9.94,9.94,0,0,0-3.3.55,8,8,0,0,0-2.85,1.7,9.1,9.1,0,0,0-2,2.8,9.66,9.66,0,0,0,0,7.7,7.92,7.92,0,0,0,2,2.7,8.86,8.86,0,0,0,2.85,1.6,9.94,9.94,0,0,0,3.3.55,10.56,10.56,0,0,0,3.9-.75,8.28,8.28,0,0,0,3.1-2l11.6,16.13a28.72,28.72,0,0,1-8.55,4.38A34.12,34.12,0,0,1,202.1,134.5Z" transform="translate(-47.76 -49.97)"/><path class="cls-2" d="M202.1,134.5a36.39,36.39,0,0,1-12.3-2,28.5,28.5,0,0,1-9.7-5.7,25.87,25.87,0,0,1-6.4-8.9,28.54,28.54,0,0,1-2.3-11.7,28.13,28.13,0,0,1,2.35-11.65,25.78,25.78,0,0,1,6.55-9,29.58,29.58,0,0,1,9.85-5.7,36.52,36.52,0,0,1,12.25-2,33.76,33.76,0,0,1,5.45.45,39,39,0,0,1,5.3,1.25,37.75,37.75,0,0,1,4.7,1.8,18.18,18.18,0,0,1,3.65,2.2L210,100.2a7.79,7.79,0,0,0-3.15-2.08,10.81,10.81,0,0,0-3.75-.72,9.94,9.94,0,0,0-3.3.55,8,8,0,0,0-2.85,1.7,9.1,9.1,0,0,0-2,2.8,9.66,9.66,0,0,0,0,7.7,7.92,7.92,0,0,0,2,2.7,8.86,8.86,0,0,0,2.85,1.6,9.94,9.94,0,0,0,3.3.55,10.56,10.56,0,0,0,3.9-.75,8.28,8.28,0,0,0,3.1-2l11.6,16.13a28.72,28.72,0,0,1-8.55,4.38A34.12,34.12,0,0,1,202.1,134.5Z" transform="translate(-47.76 -49.97)"/><path class="cls-3" d="M174.21,104.13l.09-.82a37.77,37.77,0,0,0,.15,8.29,50.88,50.88,0,0,1,.78-9.33c.49-3,1.13-5.6,1.34-8.15.58,0,1.66-1.16,2.7-2.21a15.37,15.37,0,0,0,2-2.15A16.26,16.26,0,0,1,183.53,87a17.94,17.94,0,0,0-1.69,1.81A17.94,17.94,0,0,1,183.53,87a22.56,22.56,0,0,1,10.76-5.56,31.36,31.36,0,0,1,13.05,0,38.57,38.57,0,0,1,4.86,1.31c1,.33,2,.72,3,1.17l.76.35.16.08,0,0,.19.15.14.15c0,.06-.11.13-.16.18l-.15.13,0,0h0l0,0-.06.09-.51.68c-1.32,1.8-2.49,3.36-3.34,4.45l-1.46,1.91,1.69-2.09c-.85,1.46-1.65,2.86-2.42,4.21l-.3.5c-.09.17-.21.37-.18.36l-.06.23a5.17,5.17,0,0,1-.21.57c.13.08.18.27.54.11l-.35.33a1.47,1.47,0,0,1-.07.34c0,.09,0,.06-.06.06l-.09,0c-.21-.09-.54-.25-.93-.38l-.64-.22L207,96a9.43,9.43,0,0,0-1.16-.23c.42-.13-.92-.55-2.23-.63l.5.19A11.23,11.23,0,0,0,196.85,97a10.65,10.65,0,0,0-2.71,2.64,11.73,11.73,0,0,0-1.61,3.07A9.5,9.5,0,0,1,192,104a13.06,13.06,0,0,0,.09,4c-.18-.14-.14.72,0,1.4s.25,1.15-.16.16a13.24,13.24,0,0,0,2.59,4.14,8.62,8.62,0,0,0,3.95,2.41,12,12,0,0,0,6.5.7,13,13,0,0,0,3.16-1,4.17,4.17,0,0,0,.4-.21,2.7,2.7,0,0,0,.31-.2,3.83,3.83,0,0,0,.59-.49l.18-.2c.05,0,.1.12.15.17l.31.39.65.81L213,119c1.59,2,3.19,4.05,4.8,6l0-.25c.23.29.52.63.72.85l.61.64c.42.44.87.92,1.35,1.45l.36.41c0,.12-.19.22-.29.33s-.5.43-.79.64a11.64,11.64,0,0,1-2,1.15c-2.12,1.6-5.74,3-6.64,3.88-1.53.44-2.61.73-3.69,1a24.86,24.86,0,0,1-3.76.67c.42.14-.35.27-1,.37s-1.22.17-.48.29c2.14.41,2.25,0,4.1.21l-.07-.1a34,34,0,0,0,6.39-.93,37,37,0,0,0,6.13-2.1,21.42,21.42,0,0,0,2.06-1.05,22.91,22.91,0,0,0,2.18-1.37l2.06-1.49.52-.39.14-.09.06,0s0,0,0-.06l-.16-.27-.63-1.06a52.1,52.1,0,0,0-2.89-4.37l-1.8-2.62c-1.34-1.67-2.65-3.44-3.95-5.25q-1.2-1.67-2.4-3.36l-1.75-2.44a14.42,14.42,0,0,0-1.72-2.21c-.9.93-1.89,1.93-2.78,2.81a4.15,4.15,0,0,1-1.34,1c-.23.11-.4.18-.61.26a7.7,7.7,0,0,1-3.23.51,7,7,0,0,1-3.07-.91,5.81,5.81,0,0,1-.63-.43,3.87,3.87,0,0,1-.52-.47,5.61,5.61,0,0,1-.88-1.22,6.32,6.32,0,0,1-.72-2.82,3.23,3.23,0,0,1,.7-2.16,5.74,5.74,0,0,1,.56-1.15,5.62,5.62,0,0,1,.83-1.06A5.28,5.28,0,0,1,201,100.4a7.46,7.46,0,0,1,3-.25,8.91,8.91,0,0,1,1.56.34l.39.13.18.07.09,0,.16.07a4.89,4.89,0,0,1,1.43,1.07l-.37-.37c.9.85,1.83,1.82,2.65,2.71a3.58,3.58,0,0,1,.36-.28l.16-.1.17-.24.71-1L213,100.7l1.47-2,.48-.67.45-.66c-.08,0,.16-.4.24-.6.31-.08,2.48-3.59,4.66-7.17l.88-1.43,1.28-2a20.51,20.51,0,0,0,1-1.81l.43-.83.21-.39,0-.09s0-.05-.08-.08l-.18-.14q-1.5-1.08-2.46-1.71c-.65-.42-1.11-.68-1.25-.79l-1.22-.58-1.26-.61-1.06-.5c-.72-.32-1.44-.63-2.16-.92A42.41,42.41,0,0,0,210,76.17,27.86,27.86,0,0,0,201.25,75a26.2,26.2,0,0,0-3.43.82c-1-.07-1.11.3-2.24.43-3.05-.33-4.67.58-3.1.45a42.91,42.91,0,0,0-6.55,2.44,29.4,29.4,0,0,0-2.55,1.6,3.45,3.45,0,0,1-1.63.73c-1.72,1.39-1.33.81-3.17,2.25a8.89,8.89,0,0,0-2.22,2.36c-.89,1.19-1.62,2.49-1.84,2.74l.18-.34c-1.58,2.16-2.95,3.47-4,6a28.64,28.64,0,0,0-2.24,11.08,35.19,35.19,0,0,0,1.47,10.77c.3,0-.5-1.44-.11-1.63a29.15,29.15,0,0,0,5.05,11.11c.4.64.89,1.43,1.06,1.75.84,1,.65.47,1.32,1.18l-.1.3c1.21.8,1.36,1.64,2.52,2.38.13,0,.53.24.92.52-.15.27,1.24.81,1,1h0c.24.17.43.25.71.48s1.62.63,3,1a26.4,26.4,0,0,0,3,.7l.22.13c.7.24,1.07.13.68-.06.29.11.57.21.86.3H190l.86.28c.16.07.3.26,0,.31a7,7,0,0,1,1.58.31,24.08,24.08,0,0,1-4.23-2.09c.6.12,1.57.63,2.21.79a18.69,18.69,0,0,0,3.42,1.38c.28,0,.52-.25,1.11,0,.26.28.7.1,1.19.34a6.74,6.74,0,0,1-1.78-.23c.05.29,1.43.44,1.9.57.23-.05,1.39.18,2.13.16-.34.23.58.21,1,.37s.82,0,.62-.13c.17-.27-1.95-.29-1.24-.54a5.15,5.15,0,0,0,1.65.17c0-.16-.35-.13,0-.27.57.06,1.18-.12,1.51,0a2.11,2.11,0,0,1-.51,0c.37,0-.64.26-1.65.44s-2,.32-1.5.32a9.56,9.56,0,0,1,2-.39,7.44,7.44,0,0,0,1.8-.38c-.45-.08.32-.27-.15-.33l-.52.18c-.63-.06-.89-.35-.66-.45.53,0-.23.28-1,.48s-1.63.35-1.16.31l-.37-.11a4.81,4.81,0,0,1,1.85.1c0-.15.54-.18,1-.23l.16,0c.45-.07,1.07,0,.78-.23-2.59,0,1.7-1.54-.78-1.65,1,.35-.35.35-1.44.33a3.27,3.27,0,0,0-1.34-.47c-.67,0-.41.09-.54.16-.37-.11-1.07-.25-.95-.42-.55.14-.81-.25-1.44-.27s0,.09-.38.13c-.82-.17-2-.45-2.58-.65-.21-.23-.87-.71-.27-.82,1.19.35-.56.29.71.56-.46-.5,1.13.17,1.42-.08a6,6,0,0,0-1.84-.56l.12.08a6.57,6.57,0,0,1-2.36-.78c.19-.08-.05-.26.38-.15l-.77-.3c-.11,0-.23,0,0,.12a2,2,0,0,1-1-.42,21.5,21.5,0,0,0-2.14-.69,13.26,13.26,0,0,1-2-.73c-.53-.31-.54-.56-1.11-.76a13.5,13.5,0,0,0,2.49,1.22,14.06,14.06,0,0,0,2.09.71c-.2-.17-1.83-.67-3.37-1.39a10.66,10.66,0,0,1-3.05-1.84c-.36-.26-.8-.58-.81-.41-.54-.54.35-.06,0-.51,0,0,0,.08-.14,0l-.27-.48c-1-.6-2-2-3-2.79a6.42,6.42,0,0,1,1.43.78l0,.15c.1.06.58.48.67.36a8.48,8.48,0,0,0-1.48-1.52c-.06-.13-.13-.29-.17-.4s0,0,0,0c-.08-.25-.06-.24,0-.21s0,0,.06,0c0-.59-1.92-2.13-2.35-3.44-.24-.31-.09,0-.39-.39-.48-1.29-.75-2.19-1.13-3.54-.31-.36-.4-.38-.39.2-.11-.34-.19-.69-.28-1,.71.79-.11-2,.65-1.13a4.63,4.63,0,0,0-.29-1.48c-.14,0-.35-.08-.48-.82,0-1,0-.79,0-1.65.14-.22.23.08.35,0-.33-1.28.23-1.16.14-2.37-.08-.77-.07-2.28-.34-2.33C173.78,104,174,104,174.21,104.13Z" transform="translate(-47.76 -49.97)"/><path class="cls-1" d="M249.2,109.6v22.9H226.1V56.9h23.1V100h.3L262,79.9h26.8l-17,23.7,16.9,28.9H261.8l-12.3-22.9Z" transform="translate(-47.76 -49.97)"/><path class="cls-2" d="M249.2,109.6v22.9H226.1V56.9h23.1V100h.3L262,79.9h26.8l-17,23.7,16.9,28.9H261.8l-12.3-22.9Z" transform="translate(-47.76 -49.97)"/><path class="cls-3" d="M228.83,98.85l0-1.47c0,4.76-.08,9.76-.19,14.69.93-10.72,1.76-23.39-.23-31.69,1.06-.9,1.55-11.31,1.29-11.52q-.28-3.24-.48-6.56c.09,1.52.17,3,.26,4.54-.09-1.51-.17-3-.26-4.54L229.18,61a1.08,1.08,0,0,0,0-.16l0-.07,0-.17c0-.22-.08-.48-.11-.76l.72-.09.2,0,.39,0,1.41,0,5.73-.07h5.83c2.55,0,2.45,0,3.17.06L246.38,61l-.09,4.09-.2,8.27c0,2.18-.1,5.3-.16,8.89,0,2.13-.06,4.4-.09,6.74,0,1.83,0,3.7,0,5.58l0,2.85v1.44a1.68,1.68,0,0,0,0,.32l.07.13.13.25c.71,1.36,1.44,2.7,2.17,4,.08,0,.32,0,.4,0l.16,0,.33-.05.32,0,.18,0s.06,0,.09,0l.14-.08,2.13-1.24.52-.29.25-.14.13-.08s.08,0,.14-.14l1.31-2q1.29-2,2.48-3.89L259,92l.91-1.41.49-.74c.72-1.08,1.43-2.15,2.15-3.25l-2.46,3.59,2.42-4.39,1.16-2.1.07-.12v0l0,0,0-.1.07-.22.23-.06.13,0a1.5,1.5,0,0,1,.24,0h.34l2.69-.11a19.37,19.37,0,0,0-3-.51l2.44.1c2.22-.44,7.35-.42,9.76-.61-.52.23,1.38.28,3.06.31l-.66-.15,3.27,0,2.26,0c-.43.64-.86,1.26-1.27,1.86l-.64.91-1.22,1.7a7.8,7.8,0,0,1-1.16,1.32l-3,4.54c0-.52-2.85,3.51-1.49,1.29-.89,1.5-1.87,2.95-2.86,4.38l-1.47,2.15c-.77,1.11-1.52,2.2-2.23,3.27.5.78,1,1.54,1.48,2.27l4.19,7.07,4.07,6.79,4.16,6.85.86,1.38.62,1,1.34,2.09-3.34.16-1,.05-1.41,0-2.81.1.35.11c-2.52.11-4.88.31-7.38.46-1.25.08-2.54.14-3.89.17l-2.09,0-2,0-.35,0c-1-1.42-2.43-3.79-3.62-5.63a25.67,25.67,0,0,0-3-4c-2.46-4.39-3.7-6-6.18-10.28.18.73-.71-.72-1.32-1.65l1.52.91c-.83.07-1.34.15-.3.25l.3,0-1.78-1.06c1.08,2.82,1.51,2.89,2.47,5.42l.06-.13,4.47,9,2.26,4.5,1.14,2.25,1.95,3.77,20.73.31,1,0,1.72,0,3.5,0,7,0-12.55-21.47-3.6-6-1.81-3-.46-.75-.15-.22-.28-.41.29-.47.08-.13.24-.35.55-.8,2.16-3.17c1.4-2.08,2.75-4.07,4-5.94a34.05,34.05,0,0,1,3.28-4l3.71-5.28,4.58-6.42-14,0c-2.93,0-5.85.05-8.65.1h.43c-1.84,0-3.49,0-5.09-.07l-2.39-.08-4-.06-2.28,3.65c.08,0-.28.63-.42.95a29.13,29.13,0,0,0-2.43,3.82l-1,1.78-.36.72L253,89.86l-1.18,2.24-.16.3c-.06.07-.07.24-.19.23l-.07,0V92.5l0-.2-.07-.8a13.82,13.82,0,0,1-.06-2.3c0-.2,0-.42-.05-.66,0-.63.06-1.24.1-1.82l.14-3.51c.11-2.4.22-4.8.33-7.15.22-4.7.41-9.23.37-13.34-.2-1.22-.37-5.26-.6-7.3,0-.33,0-.62.05-.87-1.62,0-2.45.21-4.77.16l-1.25-.14-.3,0-.2,0-.37-.06c-.49-.07-.95-.13-1.37-.17a17.25,17.25,0,0,0-2-.09c-.92,0-1,.18.15.33-3.66.11-7.33,0-10.58.07l-6.5.2H224a14,14,0,0,1-.27,3.55l0,1.69V61.1c0,.43,0,.73,0,1-.05.6-.12,1.22-.17,3-.29.83.48,8.69.39,9.67l-.05-.57c0,4-.62,6.67-.65,10.58-.22,10.89,0,22.77-.1,32.85.31.1-.07-2.22.34-2.34,0,2.86-.12,5.72-.23,8.59l-.15,4.31-.1,7.42h1.28c1.85.09,4.22.24,5.15.34l.89,0h.41a3.17,3.17,0,0,0,.45-.05,3.14,3.14,0,0,1,1.07-.09l.19.29c2.06-.23,3,.31,4.94.19a4.12,4.12,0,0,1,1.49-.12c0,.3,2.11,0,2,.25l0,0c.42,0,.71,0,1.22,0l3.13-.37c2.83-.18,5.64-.38,7-.52-.07-2.29-.13-3.1-.15-3.4l0-.63c0-1.95-.23-2.75-.29-1.68l0-1.89,0,.16,0-1.35c0-.25.16-.53.29-.15a12.8,12.8,0,0,1-.11-2.39c-.1,1.06-.21,2.25-.32,3.46l-.1,1-.1,1.44c-.08.9-.15,1.78-.22,2.63-.05-.74,0-1.71,0-2.72l0-1.48c0-.3,0-.59,0-.84.2-1.19.37-3.62.5-5.52,0-.41-.35-.7-.2-1.64.23-.46,0-1.07.16-1.86a17.39,17.39,0,0,1,.05,2.7c.27-.15.19-2.22.26-3-.08-.33,0-2.1-.07-3.21.26.48.17-.89.31-1.55s-.08-1.23-.17-.92c-.28-.25-.17,3-.46,1.93a12.72,12.72,0,0,0,.07-2.53c-.15,0-.11.54-.26,0a13.33,13.33,0,0,1,0-2.31,4.9,4.9,0,0,1,0,.78c0-1.14,1,6.19.92,4.71-.14.39-.92-6.5-.93-5.74s-.28-.5-.33.22l.19.8c-.06,1-.33,1.39-.44,1,0-1.65,1.06,4.69.9,3.28l-.07.57a10.17,10.17,0,0,1,0-2.81c-.15,0-.21-.81-.26-1.48l0-.23c-.08-.69-.05-1.66-.25-1.21,0,4-1.55-2.66-1.64,1.26.34-1.65.35.55.39,2.28a6.71,6.71,0,0,0-.37,2.17c0,1.08.12.64.21.84-.08.6-.14,1.74-.32,1.59.21.83-.13,1.33-.06,2.34s.09-.06.19.57l-.09,4.25c-.17.4-.46,1.65-.72.74,0-2,.42.77.37-1.33-.38.91-.11-1.85-.4-2.23a13.84,13.84,0,0,0-.12,3.15l0-.22c0,.49.06,1.24.06,2a9.92,9.92,0,0,1-.14,2c-.13-.24-.23.13-.26-.47l0,1.11c0,.16.09.33.12,0a4.14,4.14,0,0,1,0,1.48s0,.2,0,.53c-.68,0-2,.19-3.29.31s-2.59.23-2.5.19a12.41,12.41,0,0,0-2.19-.06,10.08,10.08,0,0,0,1.41,0l3.12-.16c2-.13,3.56-.27,3-.25s-2.43.1-5.43.26a45.61,45.61,0,0,1-5.83.18c-.73,0-1.62,0-1.45.18-1.24-.07.37-.27-.51-.4,0,0,.07.07-.21.06l-.85-.18a29.38,29.38,0,0,1-3.34.09,20.34,20.34,0,0,0-3.17.14,19.8,19.8,0,0,1,2.39-.57l.18.08c.1-.05,1.23-.1,1.18-.24l-.9-.05h-.66a12.86,12.86,0,0,0-1.39.12c-.15,0-.33-.07-.43-.11s0,0,0,0c-.24-.09-.18-.1,0-.16l.09,0c0-.07-.12-.1-.28-.12a11.78,11.78,0,0,0-.12-2l-.05-.63,0-.9a13.94,13.94,0,0,1,0-1.62c-.06-.66-.07-.06-.15-.88.16-2.3.29-3.89.39-6.29-.18-.77-.26-.83-.44.1l0-1.82c.49,1.66.46-3.39.94-1.57a11.29,11.29,0,0,0,.06-2.63c-.12-.1-.32-.26-.32-1.54.16-1.78.11-1.36.26-2.83.16-.35.22.19.34.13-.2-2.27.35-2,.32-4.13-.05-1.34-.07-4-.34-4.06C228.41,98.67,228.61,98.67,228.83,98.85Z" transform="translate(-47.76 -49.97)"/></svg>